# vtk DataFile Version 2.0
Résolution d'un système linéaire
ASCII
DATASET STRUCTURED_POINTS
DIMENSIONS 100  100  1 
ORIGIN 0 0 0
SPACING 0.010101  0.010101  1
POINT_DATA 10000
SCALARS solution float
LOOKUP_TABLE default
0
0
0
0
0
0
0
0
0
0
0
0
0
0
0
0
0
0
0
0
0
0
0
0
0
0
0
0
0
0
0
0
0
0
0
0
0
0
0
0
0
0
0
0
0
0
0
0
0
0
0
0
0
0
0
0
0
0
0
0
0
0
0
0
0
0
0
0
0
0
0
0
0
0
0
0
0
0
0
0
0
0
0
0
0
0
0
0
0
0
0
0
0
0
0
0
0
0
0
0
0
0.000358459
0.000716409
0.00107336
0.00142883
0.00178239
0.00213357
0.00248198
0.0028272
0.00316884
0.00350653
0.00383991
0.00416863
0.00449237
0.00481079
0.0051236
0.00543049
0.00573119
0.00602542
0.00631292
0.00659345
0.00686675
0.00713261
0.00739081
0.00764113
0.00788337
0.00811735
0.00834288
0.0085598
0.00876793
0.00896713
0.00915725
0.00933814
0.00950969
0.00967176
0.00982425
0.00996704
0.0101
0.0102232
0.0103363
0.0104394
0.0105324
0.0106152
0.0106878
0.0107501
0.0108021
0.0108437
0.0108749
0.0108958
0.0109062
0.0109062
0.0108958
0.0108749
0.0108437
0.0108021
0.0107501
0.0106878
0.0106152
0.0105324
0.0104394
0.0103363
0.0102232
0.0101
0.00996704
0.00982425
0.00967176
0.00950969
0.00933814
0.00915725
0.00896713
0.00876793
0.0085598
0.00834288
0.00811735
0.00788337
0.00764113
0.00739081
0.00713261
0.00686675
0.00659345
0.00631292
0.00602542
0.00573119
0.00543049
0.0051236
0.00481079
0.00449237
0.00416863
0.00383991
0.00350653
0.00316884
0.0028272
0.00248198
0.00213357
0.00178239
0.00142883
0.00107336
0.000716409
0.000358459
0
0
0.000716409
0.0014318
0.00214519
0.00285564
0.00356224
0.00426412
0.00496044
0.00565039
0.0063332
0.00700811
0.0076744
0.00833139
0.00897841
0.00961481
0.01024
0.0108534
0.0114543
0.0120424
0.012617
0.0131777
0.0137239
0.0142553
0.0147713
0.0152716
0.0157557
0.0162234
0.0166742
0.0171077
0.0175237
0.0179218
0.0183018
0.0186633
0.0190062
0.0193301
0.0196349
0.0199203
0.0201861
0.0204321
0.0206583
0.0208644
0.0210502
0.0212157
0.0213608
0.0214853
0.0215892
0.0216724
0.0217349
0.0217765
0.0217973
0.0217973
0.0217765
0.0217349
0.0216724
0.0215892
0.0214853
0.0213608
0.0212157
0.0210502
0.0208644
0.0206583
0.0204321
0.0201861
0.0199203
0.0196349
0.0193301
0.0190062
0.0186633
0.0183018
0.0179218
0.0175237
0.0171077
0.0166742
0.0162234
0.0157557
0.0152716
0.0147713
0.0142553
0.0137239
0.0131777
0.012617
0.0120424
0.0114543
0.0108534
0.01024
0.00961481
0.00897841
0.00833139
0.0076744
0.00700811
0.0063332
0.00565039
0.00496044
0.00426412
0.00356224
0.00285564
0.00214519
0.0014318
0.000716409
0
0
0.00107336
0.00214519
0.00321403
0.00427846
0.00533713
0.00638873
0.007432
0.00846573
0.00948876
0.0105
0.0114983
0.0124826
0.013452
0.0144055
0.0153422
0.0162612
0.0171617
0.0180428
0.0189037
0.0197438
0.0205622
0.0213583
0.0221315
0.0228811
0.0236065
0.0243072
0.0249826
0.0256322
0.0262554
0.026852
0.0274213
0.027963
0.0284767
0.0289621
0.0294187
0.0298463
0.0302446
0.0306133
0.0309521
0.0312609
0.0315394
0.0317874
0.0320047
0.0321913
0.032347
0.0324716
0.0325652
0.0326276
0.0326588
0.0326588
0.0326276
0.0325652
0.0324716
0.032347
0.0321913
0.0320047
0.0317874
0.0315394
0.0312609
0.0309521
0.0306133
0.0302446
0.0298463
0.0294187
0.0289621
0.0284767
0.027963
0.0274213
0.026852
0.0262554
0.0256322
0.0249826
0.0243072
0.0236065
0.0228811
0.0221315
0.0213583
0.0205622
0.0197438
0.0189037
0.0180428
0.0171617
0.0162612
0.0153422
0.0144055
0.013452
0.0124826
0.0114983
0.0105
0.00948876
0.00846573
0.007432
0.00638873
0.00533713
0.00427846
0.00321403
0.00214519
0.00107336
0
0
0.00142883
0.00285564
0.00427846
0.00569542
0.00710472
0.0085046
0.0098934
0.0112695
0.0126314
0.0139775
0.0153064
0.0166168
0.0179073
0.0191767
0.0204236
0.0216471
0.0228458
0.0240187
0.0251648
0.0262831
0.0273727
0.0284325
0.0294618
0.0304597
0.0314255
0.0323582
0.0332574
0.0341221
0.0349519
0.035746
0.0365039
0.0372251
0.037909
0.0385551
0.0391631
0.0397323
0.0402626
0.0407534
0.0412045
0.0416155
0.0419863
0.0423164
0.0426058
0.0428542
0.0430614
0.0432274
0.0433519
0.043435
0.0434766
0.0434766
0.043435
0.0433519
0.0432274
0.0430614
0.0428542
0.0426058
0.0423164
0.0419863
0.0416155
0.0412045
0.0407534
0.0402626
0.0397323
0.0391631
0.0385551
0.037909
0.0372251
0.0365039
0.035746
0.0349519
0.0341221
0.0332574
0.0323582
0.0314255
0.0304597
0.0294618
0.0284325
0.0273727
0.0262831
0.0251648
0.0240187
0.0228458
0.0216471
0.0204236
0.0191767
0.0179073
0.0166168
0.0153064
0.0139775
0.0126314
0.0112695
0.0098934
0.0085046
0.00710472
0.00569542
0.00427846
0.00285564
0.00142883
0
0
0.00178239
0.00356224
0.00533713
0.00710472
0.00886274
0.010609
0.0123415
0.0140581
0.015757
0.0174363
0.0190941
0.0207288
0.0223387
0.0239222
0.0254778
0.027004
0.0284993
0.0299626
0.0313924
0.0327875
0.0341467
0.0354689
0.036753
0.0379979
0.0392027
0.0403663
0.041488
0.0425668
0.043602
0.0445927
0.0455383
0.046438
0.0472912
0.0480972
0.0488556
0.0495658
0.0502273
0.0508397
0.0514024
0.0519152
0.0523777
0.0527896
0.0531506
0.0534605
0.0537191
0.0539261
0.0540815
0.0541851
0.054237
0.054237
0.0541851
0.0540815
0.0539261
0.0537191
0.0534605
0.0531506
0.0527896
0.0523777
0.0519152
0.0514024
0.0508397
0.0502273
0.0495658
0.0488556
0.0480972
0.0472912
0.046438
0.0455383
0.0445927
0.043602
0.0425668
0.041488
0.0403663
0.0392027
0.0379979
0.036753
0.0354689
0.0341467
0.0327875
0.0313924
0.0299626
0.0284993
0.027004
0.0254778
0.0239222
0.0223387
0.0207288
0.0190941
0.0174363
0.015757
0.0140581
0.0123415
0.010609
0.00886274
0.00710472
0.00533713
0.00356224
0.00178239
0
0
0.00213357
0.00426412
0.00638873
0.0085046
0.010609
0.0126994
0.0147733
0.0168282
0.0188619
0.020872
0.0228566
0.0248134
0.0267406
0.0286362
0.0304984
0.0323254
0.0341155
0.0358672
0.0375788
0.0392489
0.040876
0.0424588
0.043996
0.0454863
0.0469286
0.0483217
0.0496645
0.050956
0.0521952
0.0533812
0.0545132
0.0555903
0.0566117
0.0575767
0.0584846
0.0593348
0.0601267
0.0608598
0.0615335
0.0621474
0.0627011
0.0631942
0.0636264
0.0639974
0.0643069
0.0645547
0.0647408
0.0648649
0.0649269
0.0649269
0.0648649
0.0647408
0.0645547
0.0643069
0.0639974
0.0636264
0.0631942
0.0627011
0.0621474
0.0615335
0.0608598
0.0601267
0.0593348
0.0584846
0.0575767
0.0566117
0.0555903
0.0545132
0.0533812
0.0521952
0.050956
0.0496645
0.0483217
0.0469286
0.0454863
0.043996
0.0424588
0.040876
0.0392489
0.0375788
0.0358672
0.0341155
0.0323254
0.0304984
0.0286362
0.0267406
0.0248134
0.0228566
0.020872
0.0188619
0.0168282
0.0147733
0.0126994
0.010609
0.0085046
0.00638873
0.00426412
0.00213357
0
0
0.00248198
0.00496044
0.007432
0.0098934
0.0123415
0.0147733
0.0171858
0.0195764
0.0219422
0.0242807
0.0265894
0.0288659
0.0311078
0.0333131
0.0354795
0.0376049
0.0396875
0.0417253
0.0437166
0.0456595
0.0475525
0.049394
0.0511823
0.0529162
0.0545941
0.0562148
0.057777
0.0592796
0.0607213
0.0621012
0.0634181
0.0646712
0.0658595
0.0669822
0.0680385
0.0690277
0.069949
0.0708019
0.0715857
0.0723
0.0729442
0.0735178
0.0740207
0.0744523
0.0748124
0.0751007
0.0753172
0.0754615
0.0755338
0.0755338
0.0754615
0.0753172
0.0751007
0.0748124
0.0744523
0.0740207
0.0735178
0.0729442
0.0723
0.0715857
0.0708019
0.069949
0.0690277
0.0680385
0.0669822
0.0658595
0.0646712
0.0634181
0.0621012
0.0607213
0.0592796
0.057777
0.0562148
0.0545941
0.0529162
0.0511823
0.049394
0.0475525
0.0456595
0.0437166
0.0417253
0.0396875
0.0376049
0.0354795
0.0333131
0.0311078
0.0288659
0.0265894
0.0242807
0.0219422
0.0195764
0.0171858
0.0147733
0.0123415
0.0098934
0.007432
0.00496044
0.00248198
0
0
0.0028272
0.00565039
0.00846573
0.0112695
0.0140581
0.0168282
0.0195764
0.0222995
0.0249944
0.0276583
0.0302882
0.0328814
0.0354353
0.0379474
0.0404153
0.0428365
0.0452089
0.0475304
0.0497987
0.0520121
0.0541686
0.0562663
0.0583036
0.0602788
0.0621903
0.0640366
0.0658163
0.067528
0.0691704
0.0707424
0.0722427
0.0736702
0.075024
0.076303
0.0775064
0.0786332
0.0796829
0.0806545
0.0815474
0.0823611
0.083095
0.0837486
0.0843214
0.0848131
0.0852234
0.0855519
0.0857985
0.0859629
0.0860452
0.0860452
0.0859629
0.0857985
0.0855519
0.0852234
0.0848131
0.0843214
0.0837486
0.083095
0.0823611
0.0815474
0.0806545
0.0796829
0.0786332
0.0775064
0.076303
0.075024
0.0736702
0.0722427
0.0707424
0.0691704
0.067528
0.0658163
0.0640366
0.0621903
0.0602788
0.0583036
0.0562663
0.0541686
0.0520121
0.0497987
0.0475304
0.0452089
0.0428365
0.0404153
0.0379474
0.0354353
0.0328814
0.0302882
0.0276583
0.0249944
0.0222995
0.0195764
0.0168282
0.0140581
0.0112695
0.00846573
0.00565039
0.0028272
0
0
0.00316884
0.0063332
0.00948876
0.0126314
0.015757
0.0188619
0.0219422
0.0249944
0.0280151
0.031001
0.0339488
0.0368555
0.0397182
0.042534
0.0453003
0.0480143
0.0506735
0.0532757
0.0558184
0.0582994
0.0607167
0.0630681
0.0653518
0.0675659
0.0697086
0.0717782
0.0737732
0.075692
0.0775331
0.0792952
0.080977
0.0825772
0.0840948
0.0855285
0.0868775
0.0881407
0.0893173
0.0904065
0.0914075
0.0923196
0.0931423
0.093875
0.0945171
0.0950683
0.0955282
0.0958964
0.0961729
0.0963572
0.0964495
0.0964495
0.0963572
0.0961729
0.0958964
0.0955282
0.0950683
0.0945171
0.093875
0.0931423
0.0923196
0.0914075
0.0904065
0.0893173
0.0881407
0.0868775
0.0855285
0.0840948
0.0825772
0.080977
0.0792952
0.0775331
0.075692
0.0737732
0.0717782
0.0697086
0.0675659
0.0653518
0.0630681
0.0607167
0.0582994
0.0558184
0.0532757
0.0506735
0.0480143
0.0453003
0.042534
0.0397182
0.0368555
0.0339488
0.031001
0.0280151
0.0249944
0.0219422
0.0188619
0.015757
0.0126314
0.00948876
0.0063332
0.00316884
0
0
0.00350653
0.00700811
0.0105
0.0139775
0.0174363
0.020872
0.0242807
0.0276583
0.031001
0.0343051
0.0375672
0.0407839
0.0439518
0.0470679
0.050129
0.0531325
0.0560753
0.058955
0.0617689
0.0645146
0.0671897
0.0697919
0.0723192
0.0747695
0.0771408
0.0794312
0.0816391
0.0837626
0.0858001
0.0877502
0.0896115
0.0913825
0.0930619
0.0946487
0.0961416
0.0975396
0.0988418
0.100047
0.101155
0.102165
0.103075
0.103886
0.104597
0.105207
0.105716
0.106123
0.106429
0.106633
0.106735
0.106735
0.106633
0.106429
0.106123
0.105716
0.105207
0.104597
0.103886
0.103075
0.102165
0.101155
0.100047
0.0988418
0.0975396
0.0961416
0.0946487
0.0930619
0.0913825
0.0896115
0.0877502
0.0858001
0.0837626
0.0816391
0.0794312
0.0771408
0.0747695
0.0723192
0.0697919
0.0671897
0.0645146
0.0617689
0.058955
0.0560753
0.0531325
0.050129
0.0470679
0.0439518
0.0407839
0.0375672
0.0343051
0.031001
0.0276583
0.0242807
0.020872
0.0174363
0.0139775
0.0105
0.00700811
0.00350653
0
0
0.00383991
0.0076744
0.0114983
0.0153064
0.0190941
0.0228566
0.0265894
0.0302882
0.0339488
0.0375672
0.0411396
0.0446622
0.0481315
0.051544
0.0548965
0.0581857
0.0614086
0.0645623
0.067644
0.0706509
0.0735806
0.0764306
0.0791984
0.081882
0.084479
0.0869875
0.0894055
0.0917311
0.0939627
0.0960985
0.0981369
0.100077
0.101916
0.103654
0.105289
0.10682
0.108246
0.109566
0.11078
0.111885
0.112883
0.113771
0.114549
0.115217
0.115775
0.116221
0.116556
0.11678
0.116891
0.116891
0.11678
0.116556
0.116221
0.115775
0.115217
0.114549
0.113771
0.112883
0.111885
0.11078
0.109566
0.108246
0.10682
0.105289
0.103654
0.101916
0.100077
0.0981369
0.0960985
0.0939627
0.0917311
0.0894055
0.0869875
0.084479
0.081882
0.0791984
0.0764306
0.0735806
0.0706509
0.067644
0.0645623
0.0614086
0.0581857
0.0548965
0.051544
0.0481315
0.0446622
0.0411396
0.0375672
0.0339488
0.0302882
0.0265894
0.0228566
0.0190941
0.0153064
0.0114983
0.0076744
0.00383991
0
0
0.00416863
0.00833139
0.0124826
0.0166168
0.0207288
0.0248134
0.0288659
0.0328814
0.0368555
0.0407839
0.0446622
0.0484866
0.0522531
0.055958
0.0595976
0.0631686
0.0666677
0.0700917
0.0734374
0.0767021
0.0798829
0.0829772
0.0859823
0.0888958
0.0917155
0.094439
0.0970643
0.0995894
0.102012
0.104331
0.106544
0.10865
0.110648
0.112534
0.11431
0.115972
0.117521
0.118954
0.120272
0.121472
0.122555
0.123519
0.124364
0.12509
0.125695
0.12618
0.126543
0.126786
0.126907
0.126907
0.126786
0.126543
0.12618
0.125695
0.12509
0.124364
0.123519
0.122555
0.121472
0.120272
0.118954
0.117521
0.115972
0.11431
0.112534
0.110648
0.10865
0.106544
0.104331
0.102012
0.0995894
0.0970643
0.094439
0.0917155
0.0888958
0.0859823
0.0829772
0.0798829
0.0767021
0.0734374
0.0700917
0.0666677
0.0631686
0.0595976
0.055958
0.0522531
0.0484866
0.0446622
0.0407839
0.0368555
0.0328814
0.0288659
0.0248134
0.0207288
0.0166168
0.0124826
0.00833139
0.00416863
0
0
0.00449237
0.00897841
0.013452
0.0179073
0.0223387
0.0267406
0.0311078
0.0354353
0.0397182
0.0439518
0.0481315
0.0522531
0.0563123
0.0603051
0.0642277
0.0680763
0.0718474
0.0755375
0.0791435
0.082662
0.0860901
0.089425
0.0926638
0.095804
0.098843
0.101778
0.104608
0.107329
0.109941
0.11244
0.114826
0.117095
0.119248
0.121282
0.123195
0.124987
0.126656
0.128201
0.129621
0.130915
0.132082
0.133121
0.134032
0.134814
0.135466
0.135989
0.136381
0.136642
0.136773
0.136773
0.136642
0.136381
0.135989
0.135466
0.134814
0.134032
0.133121
0.132082
0.130915
0.129621
0.128201
0.126656
0.124987
0.123195
0.121282
0.119248
0.117095
0.114826
0.11244
0.109941
0.107329
0.104608
0.101778
0.098843
0.095804
0.0926638
0.089425
0.0860901
0.082662
0.0791435
0.0755375
0.0718474
0.0680763
0.0642277
0.0603051
0.0563123
0.0522531
0.0481315
0.0439518
0.0397182
0.0354353
0.0311078
0.0267406
0.0223387
0.0179073
0.013452
0.00897841
0.00449237
0
0
0.00481079
0.00961481
0.0144055
0.0191767
0.0239222
0.0286362
0.0333131
0.0379474
0.042534
0.0470679
0.051544
0.055958
0.0603051
0.0645812
0.0687821
0.0729038
0.0769425
0.0808945
0.0847564
0.0885246
0.0921961
0.0957677
0.0992365
0.1026
0.105854
0.108998
0.112029
0.114943
0.11774
0.120417
0.122972
0.125403
0.127708
0.129887
0.131936
0.133855
0.135643
0.137297
0.138818
0.140204
0.141454
0.142567
0.143543
0.14438
0.145079
0.145638
0.146058
0.146339
0.146479
0.146479
0.146339
0.146058
0.145638
0.145079
0.14438
0.143543
0.142567
0.141454
0.140204
0.138818
0.137297
0.135643
0.133855
0.131936
0.129887
0.127708
0.125403
0.122972
0.120417
0.11774
0.114943
0.112029
0.108998
0.105854
0.1026
0.0992365
0.0957677
0.0921961
0.0885246
0.0847564
0.0808945
0.0769425
0.0729038
0.0687821
0.0645812
0.0603051
0.055958
0.051544
0.0470679
0.042534
0.0379474
0.0333131
0.0286362
0.0239222
0.0191767
0.0144055
0.00961481
0.00481079
0
0
0.0051236
0.01024
0.0153422
0.0204236
0.0254778
0.0304984
0.0354795
0.0404153
0.0453003
0.050129
0.0548965
0.0595976
0.0642277
0.0687821
0.0732564
0.0776464
0.0819481
0.0861574
0.0902707
0.0942844
0.0981949
0.101999
0.105694
0.109276
0.112743
0.116091
0.119319
0.122424
0.125403
0.128254
0.130976
0.133565
0.136021
0.138341
0.140524
0.142568
0.144472
0.146235
0.147855
0.149331
0.150662
0.151848
0.152887
0.153779
0.154524
0.15512
0.155567
0.155865
0.156015
0.156015
0.155865
0.155567
0.15512
0.154524
0.153779
0.152887
0.151848
0.150662
0.149331
0.147855
0.146235
0.144472
0.142568
0.140524
0.138341
0.136021
0.133565
0.130976
0.128254
0.125403
0.122424
0.119319
0.116091
0.112743
0.109276
0.105694
0.101999
0.0981949
0.0942844
0.0902707
0.0861574
0.0819481
0.0776464
0.0732564
0.0687821
0.0642277
0.0595976
0.0548965
0.050129
0.0453003
0.0404153
0.0354795
0.0304984
0.0254778
0.0204236
0.0153422
0.01024
0.0051236
0
0
0.00543049
0.0108534
0.0162612
0.0216471
0.027004
0.0323254
0.0376049
0.0428365
0.0480143
0.0531325
0.0581857
0.0631686
0.0680763
0.0729038
0.0776464
0.0822997
0.0868593
0.0913212
0.0956812
0.0999357
0.104081
0.108113
0.11203
0.115827
0.119502
0.123051
0.126473
0.129764
0.132922
0.135945
0.138829
0.141574
0.144177
0.146637
0.148951
0.151118
0.153136
0.155005
0.156722
0.158287
0.159698
0.160955
0.162057
0.163003
0.163792
0.164423
0.164898
0.165214
0.165372
0.165372
0.165214
0.164898
0.164423
0.163792
0.163003
0.162057
0.160955
0.159698
0.158287
0.156722
0.155005
0.153136
0.151118
0.148951
0.146637
0.144177
0.141574
0.138829
0.135945
0.132922
0.129764
0.126473
0.123051
0.119502
0.115827
0.11203
0.108113
0.104081
0.0999357
0.0956812
0.0913212
0.0868593
0.0822997
0.0776464
0.0729038
0.0680763
0.0631686
0.0581857
0.0531325
0.0480143
0.0428365
0.0376049
0.0323254
0.027004
0.0216471
0.0162612
0.0108534
0.00543049
0
0
0.00573119
0.0114543
0.0171617
0.0228458
0.0284993
0.0341155
0.0396875
0.0452089
0.0506735
0.0560753
0.0614086
0.0666677
0.0718474
0.0769425
0.0819481
0.0868593
0.0916718
0.0963811
0.100983
0.105473
0.109849
0.114105
0.118239
0.122246
0.126125
0.129872
0.133483
0.136957
0.14029
0.143481
0.146525
0.149423
0.15217
0.154767
0.157209
0.159496
0.161627
0.163599
0.165412
0.167064
0.168553
0.16988
0.171043
0.172041
0.172874
0.173541
0.174041
0.174375
0.174542
0.174542
0.174375
0.174041
0.173541
0.172874
0.172041
0.171043
0.16988
0.168553
0.167064
0.165412
0.163599
0.161627
0.159496
0.157209
0.154767
0.15217
0.149423
0.146525
0.143481
0.14029
0.136957
0.133483
0.129872
0.126125
0.122246
0.118239
0.114105
0.109849
0.105473
0.100983
0.0963811
0.0916718
0.0868593
0.0819481
0.0769425
0.0718474
0.0666677
0.0614086
0.0560753
0.0506735
0.0452089
0.0396875
0.0341155
0.0284993
0.0228458
0.0171617
0.0114543
0.00573119
0
0
0.00602542
0.0120424
0.0180428
0.0240187
0.0299626
0.0358672
0.0417253
0.0475304
0.0532757
0.058955
0.0645623
0.0700917
0.0755375
0.0808945
0.0861574
0.0913212
0.0963811
0.101333
0.106171
0.110892
0.115493
0.119968
0.124314
0.128528
0.132607
0.136546
0.140344
0.143996
0.147501
0.150855
0.154057
0.157104
0.159993
0.162722
0.165291
0.167696
0.169936
0.17201
0.173916
0.175653
0.177219
0.178614
0.179837
0.180886
0.181762
0.182463
0.18299
0.183341
0.183516
0.183516
0.183341
0.18299
0.182463
0.181762
0.180886
0.179837
0.178614
0.177219
0.175653
0.173916
0.17201
0.169936
0.167696
0.165291
0.162722
0.159993
0.157104
0.154057
0.150855
0.147501
0.143996
0.140344
0.136546
0.132607
0.128528
0.124314
0.119968
0.115493
0.110892
0.106171
0.101333
0.0963811
0.0913212
0.0861574
0.0808945
0.0755375
0.0700917
0.0645623
0.058955
0.0532757
0.0475304
0.0417253
0.0358672
0.0299626
0.0240187
0.0180428
0.0120424
0.00602542
0
0
0.00631292
0.012617
0.0189037
0.0251648
0.0313924
0.0375788
0.0437166
0.0497987
0.0558184
0.0617689
0.067644
0.0734374
0.0791435
0.0847564
0.0902707
0.0956812
0.100983
0.106171
0.111241
0.116188
0.121008
0.125697
0.130252
0.134667
0.138941
0.143068
0.147048
0.150875
0.154547
0.158062
0.161417
0.16461
0.167637
0.170497
0.173189
0.175709
0.178056
0.180229
0.182227
0.184047
0.185688
0.18715
0.188431
0.189531
0.190449
0.191183
0.191735
0.192103
0.192287
0.192287
0.192103
0.191735
0.191183
0.190449
0.189531
0.188431
0.18715
0.185688
0.184047
0.182227
0.180229
0.178056
0.175709
0.173189
0.170497
0.167637
0.16461
0.161417
0.158062
0.154547
0.150875
0.147048
0.143068
0.138941
0.134667
0.130252
0.125697
0.121008
0.116188
0.111241
0.106171
0.100983
0.0956812
0.0902707
0.0847564
0.0791435
0.0734374
0.067644
0.0617689
0.0558184
0.0497987
0.0437166
0.0375788
0.0313924
0.0251648
0.0189037
0.012617
0.00631292
0
0
0.00659345
0.0131777
0.0197438
0.0262831
0.0327875
0.0392489
0.0456595
0.0520121
0.0582994
0.0645146
0.0706509
0.0767021
0.082662
0.0885246
0.0942844
0.0999357
0.105473
0.110892
0.116188
0.121355
0.12639
0.131288
0.136045
0.140658
0.145121
0.149433
0.15359
0.157587
0.161424
0.165095
0.1686
0.171934
0.175097
0.178085
0.180896
0.183528
0.185981
0.188251
0.190337
0.192238
0.193953
0.19548
0.196818
0.197967
0.198926
0.199693
0.200269
0.200654
0.200846
0.200846
0.200654
0.200269
0.199693
0.198926
0.197967
0.196818
0.19548
0.193953
0.192238
0.190337
0.188251
0.185981
0.183528
0.180896
0.178085
0.175097
0.171934
0.1686
0.165095
0.161424
0.157587
0.15359
0.149433
0.145121
0.140658
0.136045
0.131288
0.12639
0.121355
0.116188
0.110892
0.105473
0.0999357
0.0942844
0.0885246
0.082662
0.0767021
0.0706509
0.0645146
0.0582994
0.0520121
0.0456595
0.0392489
0.0327875
0.0262831
0.0197438
0.0131777
0.00659345
0
0
0.00686675
0.0137239
0.0205622
0.0273727
0.0341467
0.040876
0.0475525
0.0541686
0.0607167
0.0671897
0.0735806
0.0798829
0.0860901
0.0921961
0.0981949
0.104081
0.109849
0.115493
0.121008
0.12639
0.131634
0.136736
0.14169
0.146494
0.151144
0.155635
0.159964
0.164128
0.168124
0.171948
0.175598
0.179072
0.182365
0.185478
0.188406
0.191148
0.193702
0.196067
0.19824
0.20022
0.202006
0.203596
0.204991
0.206187
0.207186
0.207985
0.208585
0.208986
0.209186
0.209186
0.208986
0.208585
0.207985
0.207186
0.206187
0.204991
0.203596
0.202006
0.20022
0.19824
0.196067
0.193702
0.191148
0.188406
0.185478
0.182365
0.179072
0.175598
0.171948
0.168124
0.164128
0.159964
0.155635
0.151144
0.146494
0.14169
0.136736
0.131634
0.12639
0.121008
0.115493
0.109849
0.104081
0.0981949
0.0921961
0.0860901
0.0798829
0.0735806
0.0671897
0.0607167
0.0541686
0.0475525
0.040876
0.0341467
0.0273727
0.0205622
0.0137239
0.00686675
0
0
0.00713261
0.0142553
0.0213583
0.0284325
0.0354689
0.0424588
0.049394
0.0562663
0.0630681
0.0697919
0.0764306
0.0829772
0.089425
0.0957677
0.101999
0.108113
0.114105
0.119968
0.125697
0.131288
0.136736
0.142035
0.147182
0.152173
0.157003
0.161668
0.166165
0.170491
0.174642
0.178615
0.182407
0.186015
0.189437
0.19267
0.195712
0.198561
0.201214
0.203671
0.205928
0.207985
0.209841
0.211493
0.212941
0.214185
0.215222
0.216053
0.216676
0.217092
0.2173
0.2173
0.217092
0.216676
0.216053
0.215222
0.214185
0.212941
0.211493
0.209841
0.207985
0.205928
0.203671
0.201214
0.198561
0.195712
0.19267
0.189437
0.186015
0.182407
0.178615
0.174642
0.170491
0.166165
0.161668
0.157003
0.152173
0.147182
0.142035
0.136736
0.131288
0.125697
0.119968
0.114105
0.108113
0.101999
0.0957677
0.089425
0.0829772
0.0764306
0.0697919
0.0630681
0.0562663
0.049394
0.0424588
0.0354689
0.0284325
0.0213583
0.0142553
0.00713261
0
0
0.00739081
0.0147713
0.0221315
0.0294618
0.036753
0.043996
0.0511823
0.0583036
0.0653518
0.0723192
0.0791984
0.0859823
0.0926638
0.0992365
0.105694
0.11203
0.118239
0.124314
0.130252
0.136045
0.14169
0.147182
0.152516
0.157688
0.162693
0.167528
0.172189
0.176671
0.180973
0.18509
0.18902
0.192759
0.196305
0.199656
0.202809
0.205761
0.208511
0.211056
0.213396
0.215528
0.217451
0.219163
0.220664
0.221953
0.223028
0.223888
0.224535
0.224966
0.225181
0.225181
0.224966
0.224535
0.223888
0.223028
0.221953
0.220664
0.219163
0.217451
0.215528
0.213396
0.211056
0.208511
0.205761
0.202809
0.199656
0.196305
0.192759
0.18902
0.18509
0.180973
0.176671
0.172189
0.167528
0.162693
0.157688
0.152516
0.147182
0.14169
0.136045
0.130252
0.124314
0.118239
0.11203
0.105694
0.0992365
0.0926638
0.0859823
0.0791984
0.0723192
0.0653518
0.0583036
0.0511823
0.043996
0.036753
0.0294618
0.0221315
0.0147713
0.00739081
0
0
0.00764113
0.0152716
0.0228811
0.0304597
0.0379979
0.0454863
0.0529162
0.0602788
0.0675659
0.0747695
0.081882
0.0888958
0.095804
0.1026
0.109276
0.115827
0.122246
0.128528
0.134667
0.140658
0.146494
0.152173
0.157688
0.163035
0.16821
0.17321
0.178029
0.182664
0.187112
0.191369
0.195432
0.199298
0.202965
0.20643
0.209689
0.212742
0.215585
0.218218
0.220637
0.222841
0.22483
0.2266
0.228152
0.229485
0.230596
0.231486
0.232154
0.2326
0.232823
0.232823
0.2326
0.232154
0.231486
0.230596
0.229485
0.228152
0.2266
0.22483
0.222841
0.220637
0.218218
0.215585
0.212742
0.209689
0.20643
0.202965
0.199298
0.195432
0.191369
0.187112
0.182664
0.178029
0.17321
0.16821
0.163035
0.157688
0.152173
0.146494
0.140658
0.134667
0.128528
0.122246
0.115827
0.109276
0.1026
0.095804
0.0888958
0.081882
0.0747695
0.0675659
0.0602788
0.0529162
0.0454863
0.0379979
0.0304597
0.0228811
0.0152716
0.00764113
0
0
0.00788337
0.0157557
0.0236065
0.0314255
0.0392027
0.0469286
0.0545941
0.0621903
0.0697086
0.0771408
0.084479
0.0917155
0.098843
0.105854
0.112743
0.119502
0.126125
0.132607
0.138941
0.145121
0.151144
0.157003
0.162693
0.16821
0.17355
0.178708
0.183681
0.188463
0.193053
0.197445
0.201638
0.205627
0.209411
0.212986
0.216349
0.219499
0.222433
0.225149
0.227645
0.22992
0.231971
0.233798
0.2354
0.236775
0.237922
0.23884
0.239529
0.239989
0.240219
0.240219
0.239989
0.239529
0.23884
0.237922
0.236775
0.2354
0.233798
0.231971
0.22992
0.227645
0.225149
0.222433
0.219499
0.216349
0.212986
0.209411
0.205627
0.201638
0.197445
0.193053
0.188463
0.183681
0.178708
0.17355
0.16821
0.162693
0.157003
0.151144
0.145121
0.138941
0.132607
0.126125
0.119502
0.112743
0.105854
0.098843
0.0917155
0.084479
0.0771408
0.0697086
0.0621903
0.0545941
0.0469286
0.0392027
0.0314255
0.0236065
0.0157557
0.00788337
0
0
0.00811735
0.0162234
0.0243072
0.0323582
0.0403663
0.0483217
0.0562148
0.0640366
0.0717782
0.0794312
0.0869875
0.094439
0.101778
0.108998
0.116091
0.123051
0.129872
0.136546
0.143068
0.149433
0.155635
0.161668
0.167528
0.17321
0.178708
0.18402
0.18914
0.194066
0.198792
0.203315
0.207633
0.211741
0.215637
0.219319
0.222782
0.226026
0.229047
0.231844
0.234415
0.236758
0.23887
0.240752
0.242401
0.243817
0.244998
0.245944
0.246654
0.247127
0.247364
0.247364
0.247127
0.246654
0.245944
0.244998
0.243817
0.242401
0.240752
0.23887
0.236758
0.234415
0.231844
0.229047
0.226026
0.222782
0.219319
0.215637
0.211741
0.207633
0.203315
0.198792
0.194066
0.18914
0.18402
0.178708
0.17321
0.167528
0.161668
0.155635
0.149433
0.143068
0.136546
0.129872
0.123051
0.116091
0.108998
0.101778
0.094439
0.0869875
0.0794312
0.0717782
0.0640366
0.0562148
0.0483217
0.0403663
0.0323582
0.0243072
0.0162234
0.00811735
0
0
0.00834288
0.0166742
0.0249826
0.0332574
0.041488
0.0496645
0.057777
0.0658163
0.0737732
0.0816391
0.0894055
0.0970643
0.104608
0.112029
0.119319
0.126473
0.133483
0.140344
0.147048
0.15359
0.159964
0.166165
0.172189
0.178029
0.183681
0.18914
0.194404
0.199466
0.204324
0.208974
0.213412
0.217635
0.22164
0.225424
0.228984
0.232318
0.235424
0.238299
0.240941
0.243349
0.245521
0.247455
0.24915
0.250606
0.25182
0.252792
0.253522
0.254009
0.254252
0.254252
0.254009
0.253522
0.252792
0.25182
0.250606
0.24915
0.247455
0.245521
0.243349
0.240941
0.238299
0.235424
0.232318
0.228984
0.225424
0.22164
0.217635
0.213412
0.208974
0.204324
0.199466
0.194404
0.18914
0.183681
0.178029
0.172189
0.166165
0.159964
0.15359
0.147048
0.140344
0.133483
0.126473
0.119319
0.112029
0.104608
0.0970643
0.0894055
0.0816391
0.0737732
0.0658163
0.057777
0.0496645
0.041488
0.0332574
0.0249826
0.0166742
0.00834288
0
0
0.0085598
0.0171077
0.0256322
0.0341221
0.0425668
0.050956
0.0592796
0.067528
0.075692
0.0837626
0.0917311
0.0995894
0.107329
0.114943
0.122424
0.129764
0.136957
0.143996
0.150875
0.157587
0.164128
0.170491
0.176671
0.182664
0.188463
0.194066
0.199466
0.204661
0.209645
0.214416
0.21897
0.223303
0.227413
0.231296
0.234949
0.238371
0.241557
0.244508
0.247219
0.24969
0.251918
0.253903
0.255643
0.257136
0.258382
0.259379
0.260128
0.260628
0.260878
0.260878
0.260628
0.260128
0.259379
0.258382
0.257136
0.255643
0.253903
0.251918
0.24969
0.247219
0.244508
0.241557
0.238371
0.234949
0.231296
0.227413
0.223303
0.21897
0.214416
0.209645
0.204661
0.199466
0.194066
0.188463
0.182664
0.176671
0.170491
0.164128
0.157587
0.150875
0.143996
0.136957
0.129764
0.122424
0.114943
0.107329
0.0995894
0.0917311
0.0837626
0.075692
0.067528
0.0592796
0.050956
0.0425668
0.0341221
0.0256322
0.0171077
0.0085598
0
0
0.00876793
0.0175237
0.0262554
0.0349519
0.043602
0.0521952
0.0607213
0.0691704
0.0775331
0.0858001
0.0939627
0.102012
0.109941
0.11774
0.125403
0.132922
0.14029
0.147501
0.154547
0.161424
0.168124
0.174642
0.180973
0.187112
0.193053
0.198792
0.204324
0.209645
0.214752
0.219639
0.224304
0.228743
0.232953
0.236931
0.240674
0.244179
0.247443
0.250465
0.253243
0.255774
0.258057
0.260091
0.261873
0.263402
0.264679
0.265701
0.266468
0.26698
0.267236
0.267236
0.26698
0.266468
0.265701
0.264679
0.263402
0.261873
0.260091
0.258057
0.255774
0.253243
0.250465
0.247443
0.244179
0.240674
0.236931
0.232953
0.228743
0.224304
0.219639
0.214752
0.209645
0.204324
0.198792
0.193053
0.187112
0.180973
0.174642
0.168124
0.161424
0.154547
0.147501
0.14029
0.132922
0.125403
0.11774
0.109941
0.102012
0.0939627
0.0858001
0.0775331
0.0691704
0.0607213
0.0521952
0.043602
0.0349519
0.0262554
0.0175237
0.00876793
0
0
0.00896713
0.0179218
0.026852
0.035746
0.0445927
0.0533812
0.0621012
0.0707424
0.0792952
0.0877502
0.0960985
0.104331
0.11244
0.120417
0.128254
0.135945
0.143481
0.150855
0.158062
0.165095
0.171948
0.178615
0.18509
0.191369
0.197445
0.203315
0.208974
0.214416
0.219639
0.224638
0.22941
0.23395
0.238256
0.242325
0.246153
0.249738
0.253077
0.256168
0.259009
0.261598
0.263933
0.266013
0.267836
0.2694
0.270706
0.271751
0.272536
0.273059
0.273321
0.273321
0.273059
0.272536
0.271751
0.270706
0.2694
0.267836
0.266013
0.263933
0.261598
0.259009
0.256168
0.253077
0.249738
0.246153
0.242325
0.238256
0.23395
0.22941
0.224638
0.219639
0.214416
0.208974
0.203315
0.197445
0.191369
0.18509
0.178615
0.171948
0.165095
0.158062
0.150855
0.143481
0.135945
0.128254
0.120417
0.11244
0.104331
0.0960985
0.0877502
0.0792952
0.0707424
0.0621012
0.0533812
0.0445927
0.035746
0.026852
0.0179218
0.00896713
0
0
0.00915725
0.0183018
0.0274213
0.0365039
0.0455383
0.0545132
0.0634181
0.0722427
0.080977
0.0896115
0.0981369
0.106544
0.114826
0.122972
0.130976
0.138829
0.146525
0.154057
0.161417
0.1686
0.175598
0.182407
0.18902
0.195432
0.201638
0.207633
0.213412
0.21897
0.224304
0.22941
0.234283
0.23892
0.243318
0.247473
0.251382
0.255044
0.258454
0.261611
0.264513
0.267157
0.269542
0.271666
0.273528
0.275126
0.276459
0.277527
0.278328
0.278863
0.27913
0.27913
0.278863
0.278328
0.277527
0.276459
0.275126
0.273528
0.271666
0.269542
0.267157
0.264513
0.261611
0.258454
0.255044
0.251382
0.247473
0.243318
0.23892
0.234283
0.22941
0.224304
0.21897
0.213412
0.207633
0.201638
0.195432
0.18902
0.182407
0.175598
0.1686
0.161417
0.154057
0.146525
0.138829
0.130976
0.122972
0.114826
0.106544
0.0981369
0.0896115
0.080977
0.0722427
0.0634181
0.0545132
0.0455383
0.0365039
0.0274213
0.0183018
0.00915725
0
0
0.00933814
0.0186633
0.027963
0.0372251
0.046438
0.0555903
0.0646712
0.0736702
0.0825772
0.0913825
0.100077
0.10865
0.117095
0.125403
0.133565
0.141574
0.149423
0.157104
0.16461
0.171934
0.179072
0.186015
0.192759
0.199298
0.205627
0.211741
0.217635
0.223303
0.228743
0.23395
0.23892
0.243649
0.248134
0.252372
0.256359
0.260093
0.263571
0.266791
0.26975
0.272447
0.274879
0.277045
0.278944
0.280574
0.281933
0.283022
0.28384
0.284385
0.284658
0.284658
0.284385
0.28384
0.283022
0.281933
0.280574
0.278944
0.277045
0.274879
0.272447
0.26975
0.266791
0.263571
0.260093
0.256359
0.252372
0.248134
0.243649
0.23892
0.23395
0.228743
0.223303
0.217635
0.211741
0.205627
0.199298
0.192759
0.186015
0.179072
0.171934
0.16461
0.157104
0.149423
0.141574
0.133565
0.125403
0.117095
0.10865
0.100077
0.0913825
0.0825772
0.0736702
0.0646712
0.0555903
0.046438
0.0372251
0.027963
0.0186633
0.00933814
0
0
0.00950969
0.0190062
0.0284767
0.037909
0.0472912
0.0566117
0.0658595
0.075024
0.0840948
0.0930619
0.101916
0.110648
0.119248
0.127708
0.136021
0.144177
0.15217
0.159993
0.167637
0.175097
0.182365
0.189437
0.196305
0.202965
0.209411
0.215637
0.22164
0.227413
0.232953
0.238256
0.243318
0.248134
0.252702
0.257018
0.261079
0.264882
0.268424
0.271703
0.274717
0.277464
0.279941
0.282147
0.284081
0.285741
0.287125
0.288234
0.289067
0.289622
0.2899
0.2899
0.289622
0.289067
0.288234
0.287125
0.285741
0.284081
0.282147
0.279941
0.277464
0.274717
0.271703
0.268424
0.264882
0.261079
0.257018
0.252702
0.248134
0.243318
0.238256
0.232953
0.227413
0.22164
0.215637
0.209411
0.202965
0.196305
0.189437
0.182365
0.175097
0.167637
0.159993
0.15217
0.144177
0.136021
0.127708
0.119248
0.110648
0.101916
0.0930619
0.0840948
0.075024
0.0658595
0.0566117
0.0472912
0.037909
0.0284767
0.0190062
0.00950969
0
0
0.00967176
0.0193301
0.0289621
0.0385551
0.0480972
0.0575767
0.0669822
0.076303
0.0855285
0.0946487
0.103654
0.112534
0.121282
0.129887
0.138341
0.146637
0.154767
0.162722
0.170497
0.178085
0.185478
0.19267
0.199656
0.20643
0.212986
0.219319
0.225424
0.231296
0.236931
0.242325
0.247473
0.252372
0.257018
0.261408
0.265538
0.269406
0.273009
0.276345
0.27941
0.282204
0.284723
0.286967
0.288934
0.290623
0.292031
0.293159
0.294006
0.294571
0.294853
0.294853
0.294571
0.294006
0.293159
0.292031
0.290623
0.288934
0.286967
0.284723
0.282204
0.27941
0.276345
0.273009
0.269406
0.265538
0.261408
0.257018
0.252372
0.247473
0.242325
0.236931
0.231296
0.225424
0.219319
0.212986
0.20643
0.199656
0.19267
0.185478
0.178085
0.170497
0.162722
0.154767
0.146637
0.138341
0.129887
0.121282
0.112534
0.103654
0.0946487
0.0855285
0.076303
0.0669822
0.0575767
0.0480972
0.0385551
0.0289621
0.0193301
0.00967176
0
0
0.00982425
0.0196349
0.0294187
0.0391631
0.0488556
0.0584846
0.0680385
0.0775064
0.0868775
0.0961416
0.105289
0.11431
0.123195
0.131936
0.140524
0.148951
0.157209
0.165291
0.173189
0.180896
0.188406
0.195712
0.202809
0.209689
0.216349
0.222782
0.228984
0.234949
0.240674
0.246153
0.251382
0.256359
0.261079
0.265538
0.269734
0.273663
0.277323
0.280712
0.283826
0.286664
0.289223
0.291503
0.293501
0.295216
0.296647
0.297793
0.298653
0.299227
0.299514
0.299514
0.299227
0.298653
0.297793
0.296647
0.295216
0.293501
0.291503
0.289223
0.286664
0.283826
0.280712
0.277323
0.273663
0.269734
0.265538
0.261079
0.256359
0.251382
0.246153
0.240674
0.234949
0.228984
0.222782
0.216349
0.209689
0.202809
0.195712
0.188406
0.180896
0.173189
0.165291
0.157209
0.148951
0.140524
0.131936
0.123195
0.11431
0.105289
0.0961416
0.0868775
0.0775064
0.0680385
0.0584846
0.0488556
0.0391631
0.0294187
0.0196349
0.00982425
0
0
0.00996704
0.0199203
0.0298463
0.0397323
0.0495658
0.0593348
0.0690277
0.0786332
0.0881407
0.0975396
0.10682
0.115972
0.124987
0.133855
0.142568
0.151118
0.159496
0.167696
0.175709
0.183528
0.191148
0.198561
0.205761
0.212742
0.219499
0.226026
0.232318
0.238371
0.244179
0.249738
0.255044
0.260093
0.264882
0.269406
0.273663
0.27765
0.281364
0.284802
0.287961
0.290841
0.293438
0.295751
0.297778
0.299518
0.30097
0.302133
0.303005
0.303587
0.303879
0.303879
0.303587
0.303005
0.302133
0.30097
0.299518
0.297778
0.295751
0.293438
0.290841
0.287961
0.284802
0.281364
0.27765
0.273663
0.269406
0.264882
0.260093
0.255044
0.249738
0.244179
0.238371
0.232318
0.226026
0.219499
0.212742
0.205761
0.198561
0.191148
0.183528
0.175709
0.167696
0.159496
0.151118
0.142568
0.133855
0.124987
0.115972
0.10682
0.0975396
0.0881407
0.0786332
0.0690277
0.0593348
0.0495658
0.0397323
0.0298463
0.0199203
0.00996704
0
0
0.0101
0.0201861
0.0302446
0.0402626
0.0502273
0.0601267
0.069949
0.0796829
0.0893173
0.0988418
0.108246
0.117521
0.126656
0.135643
0.144472
0.153136
0.161627
0.169936
0.178056
0.185981
0.193702
0.201214
0.208511
0.215585
0.222433
0.229047
0.235424
0.241557
0.247443
0.253077
0.258454
0.263571
0.268424
0.273009
0.277323
0.281364
0.285127
0.288611
0.291813
0.294731
0.297363
0.299707
0.301762
0.303525
0.304997
0.306175
0.307059
0.307649
0.307944
0.307944
0.307649
0.307059
0.306175
0.304997
0.303525
0.301762
0.299707
0.297363
0.294731
0.291813
0.288611
0.285127
0.281364
0.277323
0.273009
0.268424
0.263571
0.258454
0.253077
0.247443
0.241557
0.235424
0.229047
0.222433
0.215585
0.208511
0.201214
0.193702
0.185981
0.178056
0.169936
0.161627
0.153136
0.144472
0.135643
0.126656
0.117521
0.108246
0.0988418
0.0893173
0.0796829
0.069949
0.0601267
0.0502273
0.0402626
0.0302446
0.0201861
0.0101
0
0
0.0102232
0.0204321
0.0306133
0.0407534
0.0508397
0.0608598
0.0708019
0.0806545
0.0904065
0.100047
0.109566
0.118954
0.128201
0.137297
0.146235
0.155005
0.163599
0.17201
0.180229
0.188251
0.196067
0.203671
0.211056
0.218218
0.225149
0.231844
0.238299
0.244508
0.250465
0.256168
0.261611
0.266791
0.271703
0.276345
0.280712
0.284802
0.288611
0.292138
0.295379
0.298333
0.300997
0.30337
0.30545
0.307235
0.308724
0.309917
0.310812
0.311409
0.311708
0.311708
0.311409
0.310812
0.309917
0.308724
0.307235
0.30545
0.30337
0.300997
0.298333
0.295379
0.292138
0.288611
0.284802
0.280712
0.276345
0.271703
0.266791
0.261611
0.256168
0.250465
0.244508
0.238299
0.231844
0.225149
0.218218
0.211056
0.203671
0.196067
0.188251
0.180229
0.17201
0.163599
0.155005
0.146235
0.137297
0.128201
0.118954
0.109566
0.100047
0.0904065
0.0806545
0.0708019
0.0608598
0.0508397
0.0407534
0.0306133
0.0204321
0.0102232
0
0
0.0103363
0.0206583
0.0309521
0.0412045
0.0514024
0.0615335
0.0715857
0.0815474
0.0914075
0.101155
0.11078
0.120272
0.129621
0.138818
0.147855
0.156722
0.165412
0.173916
0.182227
0.190337
0.19824
0.205928
0.213396
0.220637
0.227645
0.234415
0.240941
0.247219
0.253243
0.259009
0.264513
0.26975
0.274717
0.27941
0.283826
0.287961
0.291813
0.295379
0.298657
0.301643
0.304337
0.306736
0.308839
0.310644
0.31215
0.313356
0.314261
0.314865
0.315167
0.315167
0.314865
0.314261
0.313356
0.31215
0.310644
0.308839
0.306736
0.304337
0.301643
0.298657
0.295379
0.291813
0.287961
0.283826
0.27941
0.274717
0.26975
0.264513
0.259009
0.253243
0.247219
0.240941
0.234415
0.227645
0.220637
0.213396
0.205928
0.19824
0.190337
0.182227
0.173916
0.165412
0.156722
0.147855
0.138818
0.129621
0.120272
0.11078
0.101155
0.0914075
0.0815474
0.0715857
0.0615335
0.0514024
0.0412045
0.0309521
0.0206583
0.0103363
0
0
0.0104394
0.0208644
0.0312609
0.0416155
0.0519152
0.0621474
0.0723
0.0823611
0.0923196
0.102165
0.111885
0.121472
0.130915
0.140204
0.149331
0.158287
0.167064
0.175653
0.184047
0.192238
0.20022
0.207985
0.215528
0.222841
0.22992
0.236758
0.243349
0.24969
0.255774
0.261598
0.267157
0.272447
0.277464
0.282204
0.286664
0.290841
0.294731
0.298333
0.301643
0.30466
0.307381
0.309804
0.311928
0.313751
0.315272
0.31649
0.317405
0.318015
0.31832
0.31832
0.318015
0.317405
0.31649
0.315272
0.313751
0.311928
0.309804
0.307381
0.30466
0.301643
0.298333
0.294731
0.290841
0.286664
0.282204
0.277464
0.272447
0.267157
0.261598
0.255774
0.24969
0.243349
0.236758
0.22992
0.222841
0.215528
0.207985
0.20022
0.192238
0.184047
0.175653
0.167064
0.158287
0.149331
0.140204
0.130915
0.121472
0.111885
0.102165
0.0923196
0.0823611
0.0723
0.0621474
0.0519152
0.0416155
0.0312609
0.0208644
0.0104394
0
0
0.0105324
0.0210502
0.0315394
0.0419863
0.0523777
0.0627011
0.0729442
0.083095
0.0931423
0.103075
0.112883
0.122555
0.132082
0.141454
0.150662
0.159698
0.168553
0.177219
0.185688
0.193953
0.202006
0.209841
0.217451
0.22483
0.231971
0.23887
0.245521
0.251918
0.258057
0.263933
0.269542
0.274879
0.279941
0.284723
0.289223
0.293438
0.297363
0.300997
0.304337
0.307381
0.310126
0.312571
0.314714
0.316553
0.318088
0.319317
0.32024
0.320855
0.321163
0.321163
0.320855
0.32024
0.319317
0.318088
0.316553
0.314714
0.312571
0.310126
0.307381
0.304337
0.300997
0.297363
0.293438
0.289223
0.284723
0.279941
0.274879
0.269542
0.263933
0.258057
0.251918
0.245521
0.23887
0.231971
0.22483
0.217451
0.209841
0.202006
0.193953
0.185688
0.177219
0.168553
0.159698
0.150662
0.141454
0.132082
0.122555
0.112883
0.103075
0.0931423
0.083095
0.0729442
0.0627011
0.0523777
0.0419863
0.0315394
0.0210502
0.0105324
0
0
0.0106152
0.0212157
0.0317874
0.0423164
0.0527896
0.0631942
0.0735178
0.0837486
0.093875
0.103886
0.113771
0.123519
0.133121
0.142567
0.151848
0.160955
0.16988
0.178614
0.18715
0.19548
0.203596
0.211493
0.219163
0.2266
0.233798
0.240752
0.247455
0.253903
0.260091
0.266013
0.271666
0.277045
0.282147
0.286967
0.291503
0.295751
0.299707
0.30337
0.306736
0.309804
0.312571
0.315035
0.317195
0.319049
0.320596
0.321835
0.322765
0.323385
0.323695
0.323695
0.323385
0.322765
0.321835
0.320596
0.319049
0.317195
0.315035
0.312571
0.309804
0.306736
0.30337
0.299707
0.295751
0.291503
0.286967
0.282147
0.277045
0.271666
0.266013
0.260091
0.253903
0.247455
0.240752
0.233798
0.2266
0.219163
0.211493
0.203596
0.19548
0.18715
0.178614
0.16988
0.160955
0.151848
0.142567
0.133121
0.123519
0.113771
0.103886
0.093875
0.0837486
0.0735178
0.0631942
0.0527896
0.0423164
0.0317874
0.0212157
0.0106152
0
0
0.0106878
0.0213608
0.0320047
0.0426058
0.0531506
0.0636264
0.0740207
0.0843214
0.0945171
0.104597
0.114549
0.124364
0.134032
0.143543
0.152887
0.162057
0.171043
0.179837
0.188431
0.196818
0.204991
0.212941
0.220664
0.228152
0.2354
0.242401
0.24915
0.255643
0.261873
0.267836
0.273528
0.278944
0.284081
0.288934
0.293501
0.297778
0.301762
0.30545
0.308839
0.311928
0.314714
0.317195
0.31937
0.321237
0.322794
0.324042
0.324978
0.325602
0.325915
0.325915
0.325602
0.324978
0.324042
0.322794
0.321237
0.31937
0.317195
0.314714
0.311928
0.308839
0.30545
0.301762
0.297778
0.293501
0.288934
0.284081
0.278944
0.273528
0.267836
0.261873
0.255643
0.24915
0.242401
0.2354
0.228152
0.220664
0.212941
0.204991
0.196818
0.188431
0.179837
0.171043
0.162057
0.152887
0.143543
0.134032
0.124364
0.114549
0.104597
0.0945171
0.0843214
0.0740207
0.0636264
0.0531506
0.0426058
0.0320047
0.0213608
0.0106878
0
0
0.0107501
0.0214853
0.0321913
0.0428542
0.0534605
0.0639974
0.0744523
0.0848131
0.0950683
0.105207
0.115217
0.12509
0.134814
0.14438
0.153779
0.163003
0.172041
0.180886
0.189531
0.197967
0.206187
0.214185
0.221953
0.229485
0.236775
0.243817
0.250606
0.257136
0.263402
0.2694
0.275126
0.280574
0.285741
0.290623
0.295216
0.299518
0.303525
0.307235
0.310644
0.313751
0.316553
0.319049
0.321237
0.323114
0.324681
0.325936
0.326878
0.327506
0.32782
0.32782
0.327506
0.326878
0.325936
0.324681
0.323114
0.321237
0.319049
0.316553
0.313751
0.310644
0.307235
0.303525
0.299518
0.295216
0.290623
0.285741
0.280574
0.275126
0.2694
0.263402
0.257136
0.250606
0.243817
0.236775
0.229485
0.221953
0.214185
0.206187
0.197967
0.189531
0.180886
0.172041
0.163003
0.153779
0.14438
0.134814
0.12509
0.115217
0.105207
0.0950683
0.0848131
0.0744523
0.0639974
0.0534605
0.0428542
0.0321913
0.0214853
0.0107501
0
0
0.0108021
0.0215892
0.032347
0.0430614
0.0537191
0.0643069
0.0748124
0.0852234
0.0955282
0.105716
0.115775
0.125695
0.135466
0.145079
0.154524
0.163792
0.172874
0.181762
0.190449
0.198926
0.207186
0.215222
0.223028
0.230596
0.237922
0.244998
0.25182
0.258382
0.264679
0.270706
0.276459
0.281933
0.287125
0.292031
0.296647
0.30097
0.304997
0.308724
0.31215
0.315272
0.318088
0.320596
0.322794
0.324681
0.326255
0.327516
0.328463
0.329094
0.329409
0.329409
0.329094
0.328463
0.327516
0.326255
0.324681
0.322794
0.320596
0.318088
0.315272
0.31215
0.308724
0.304997
0.30097
0.296647
0.292031
0.287125
0.281933
0.276459
0.270706
0.264679
0.258382
0.25182
0.244998
0.237922
0.230596
0.223028
0.215222
0.207186
0.198926
0.190449
0.181762
0.172874
0.163792
0.154524
0.145079
0.135466
0.125695
0.115775
0.105716
0.0955282
0.0852234
0.0748124
0.0643069
0.0537191
0.0430614
0.032347
0.0215892
0.0108021
0
0
0.0108437
0.0216724
0.0324716
0.0432274
0.0539261
0.0645547
0.0751007
0.0855519
0.0958964
0.106123
0.116221
0.12618
0.135989
0.145638
0.15512
0.164423
0.173541
0.182463
0.191183
0.199693
0.207985
0.216053
0.223888
0.231486
0.23884
0.245944
0.252792
0.259379
0.265701
0.271751
0.277527
0.283022
0.288234
0.293159
0.297793
0.302133
0.306175
0.309917
0.313356
0.31649
0.319317
0.321835
0.324042
0.325936
0.327516
0.328782
0.329732
0.330366
0.330682
0.330682
0.330366
0.329732
0.328782
0.327516
0.325936
0.324042
0.321835
0.319317
0.31649
0.313356
0.309917
0.306175
0.302133
0.297793
0.293159
0.288234
0.283022
0.277527
0.271751
0.265701
0.259379
0.252792
0.245944
0.23884
0.231486
0.223888
0.216053
0.207985
0.199693
0.191183
0.182463
0.173541
0.164423
0.15512
0.145638
0.135989
0.12618
0.116221
0.106123
0.0958964
0.0855519
0.0751007
0.0645547
0.0539261
0.0432274
0.0324716
0.0216724
0.0108437
0
0
0.0108749
0.0217349
0.0325652
0.0433519
0.0540815
0.0647408
0.0753172
0.0857985
0.0961729
0.106429
0.116556
0.126543
0.136381
0.146058
0.155567
0.164898
0.174041
0.18299
0.191735
0.200269
0.208585
0.216676
0.224535
0.232154
0.239529
0.246654
0.253522
0.260128
0.266468
0.272536
0.278328
0.28384
0.289067
0.294006
0.298653
0.303005
0.307059
0.310812
0.314261
0.317405
0.32024
0.322765
0.324978
0.326878
0.328463
0.329732
0.330685
0.33132
0.331638
0.331638
0.33132
0.330685
0.329732
0.328463
0.326878
0.324978
0.322765
0.32024
0.317405
0.314261
0.310812
0.307059
0.303005
0.298653
0.294006
0.289067
0.28384
0.278328
0.272536
0.266468
0.260128
0.253522
0.246654
0.239529
0.232154
0.224535
0.216676
0.208585
0.200269
0.191735
0.18299
0.174041
0.164898
0.155567
0.146058
0.136381
0.126543
0.116556
0.106429
0.0961729
0.0857985
0.0753172
0.0647408
0.0540815
0.0433519
0.0325652
0.0217349
0.0108749
0
0
0.0108958
0.0217765
0.0326276
0.043435
0.0541851
0.0648649
0.0754615
0.0859629
0.0963572
0.106633
0.11678
0.126786
0.136642
0.146339
0.155865
0.165214
0.174375
0.183341
0.192103
0.200654
0.208986
0.217092
0.224966
0.2326
0.239989
0.247127
0.254009
0.260628
0.26698
0.273059
0.278863
0.284385
0.289622
0.294571
0.299227
0.303587
0.307649
0.311409
0.314865
0.318015
0.320855
0.323385
0.325602
0.327506
0.329094
0.330366
0.33132
0.331957
0.332275
0.332275
0.331957
0.33132
0.330366
0.329094
0.327506
0.325602
0.323385
0.320855
0.318015
0.314865
0.311409
0.307649
0.303587
0.299227
0.294571
0.289622
0.284385
0.278863
0.273059
0.26698
0.260628
0.254009
0.247127
0.239989
0.2326
0.224966
0.217092
0.208986
0.200654
0.192103
0.183341
0.174375
0.165214
0.155865
0.146339
0.136642
0.126786
0.11678
0.106633
0.0963572
0.0859629
0.0754615
0.0648649
0.0541851
0.043435
0.0326276
0.0217765
0.0108958
0
0
0.0109062
0.0217973
0.0326588
0.0434766
0.054237
0.0649269
0.0755338
0.0860452
0.0964495
0.106735
0.116891
0.126907
0.136773
0.146479
0.156015
0.165372
0.174542
0.183516
0.192287
0.200846
0.209186
0.2173
0.225181
0.232823
0.240219
0.247364
0.254252
0.260878
0.267236
0.273321
0.27913
0.284658
0.2899
0.294853
0.299514
0.303879
0.307944
0.311708
0.315167
0.31832
0.321163
0.323695
0.325915
0.32782
0.329409
0.330682
0.331638
0.332275
0.332594
0.332594
0.332275
0.331638
0.330682
0.329409
0.32782
0.325915
0.323695
0.321163
0.31832
0.315167
0.311708
0.307944
0.303879
0.299514
0.294853
0.2899
0.284658
0.27913
0.273321
0.267236
0.260878
0.254252
0.247364
0.240219
0.232823
0.225181
0.2173
0.209186
0.200846
0.192287
0.183516
0.174542
0.165372
0.156015
0.146479
0.136773
0.126907
0.116891
0.106735
0.0964495
0.0860452
0.0755338
0.0649269
0.054237
0.0434766
0.0326588
0.0217973
0.0109062
0
0
0.0109062
0.0217973
0.0326588
0.0434766
0.054237
0.0649269
0.0755338
0.0860452
0.0964495
0.106735
0.116891
0.126907
0.136773
0.146479
0.156015
0.165372
0.174542
0.183516
0.192287
0.200846
0.209186
0.2173
0.225181
0.232823
0.240219
0.247364
0.254252
0.260878
0.267236
0.273321
0.27913
0.284658
0.2899
0.294853
0.299514
0.303879
0.307944
0.311708
0.315167
0.31832
0.321163
0.323695
0.325915
0.32782
0.329409
0.330682
0.331638
0.332275
0.332594
0.332594
0.332275
0.331638
0.330682
0.329409
0.32782
0.325915
0.323695
0.321163
0.31832
0.315167
0.311708
0.307944
0.303879
0.299514
0.294853
0.2899
0.284658
0.27913
0.273321
0.267236
0.260878
0.254252
0.247364
0.240219
0.232823
0.225181
0.2173
0.209186
0.200846
0.192287
0.183516
0.174542
0.165372
0.156015
0.146479
0.136773
0.126907
0.116891
0.106735
0.0964495
0.0860452
0.0755338
0.0649269
0.054237
0.0434766
0.0326588
0.0217973
0.0109062
0
0
0.0108958
0.0217765
0.0326276
0.043435
0.0541851
0.0648649
0.0754615
0.0859629
0.0963572
0.106633
0.11678
0.126786
0.136642
0.146339
0.155865
0.165214
0.174375
0.183341
0.192103
0.200654
0.208986
0.217092
0.224966
0.2326
0.239989
0.247127
0.254009
0.260628
0.26698
0.273059
0.278863
0.284385
0.289622
0.294571
0.299227
0.303587
0.307649
0.311409
0.314865
0.318015
0.320855
0.323385
0.325602
0.327506
0.329094
0.330366
0.33132
0.331957
0.332275
0.332275
0.331957
0.33132
0.330366
0.329094
0.327506
0.325602
0.323385
0.320855
0.318015
0.314865
0.311409
0.307649
0.303587
0.299227
0.294571
0.289622
0.284385
0.278863
0.273059
0.26698
0.260628
0.254009
0.247127
0.239989
0.2326
0.224966
0.217092
0.208986
0.200654
0.192103
0.183341
0.174375
0.165214
0.155865
0.146339
0.136642
0.126786
0.11678
0.106633
0.0963572
0.0859629
0.0754615
0.0648649
0.0541851
0.043435
0.0326276
0.0217765
0.0108958
0
0
0.0108749
0.0217349
0.0325652
0.0433519
0.0540815
0.0647408
0.0753172
0.0857985
0.0961729
0.106429
0.116556
0.126543
0.136381
0.146058
0.155567
0.164898
0.174041
0.18299
0.191735
0.200269
0.208585
0.216676
0.224535
0.232154
0.239529
0.246654
0.253522
0.260128
0.266468
0.272536
0.278328
0.28384
0.289067
0.294006
0.298653
0.303005
0.307059
0.310812
0.314261
0.317405
0.32024
0.322765
0.324978
0.326878
0.328463
0.329732
0.330685
0.33132
0.331638
0.331638
0.33132
0.330685
0.329732
0.328463
0.326878
0.324978
0.322765
0.32024
0.317405
0.314261
0.310812
0.307059
0.303005
0.298653
0.294006
0.289067
0.28384
0.278328
0.272536
0.266468
0.260128
0.253522
0.246654
0.239529
0.232154
0.224535
0.216676
0.208585
0.200269
0.191735
0.18299
0.174041
0.164898
0.155567
0.146058
0.136381
0.126543
0.116556
0.106429
0.0961729
0.0857985
0.0753172
0.0647408
0.0540815
0.0433519
0.0325652
0.0217349
0.0108749
0
0
0.0108437
0.0216724
0.0324716
0.0432274
0.0539261
0.0645547
0.0751007
0.0855519
0.0958964
0.106123
0.116221
0.12618
0.135989
0.145638
0.15512
0.164423
0.173541
0.182463
0.191183
0.199693
0.207985
0.216053
0.223888
0.231486
0.23884
0.245944
0.252792
0.259379
0.265701
0.271751
0.277527
0.283022
0.288234
0.293159
0.297793
0.302133
0.306175
0.309917
0.313356
0.31649
0.319317
0.321835
0.324042
0.325936
0.327516
0.328782
0.329732
0.330366
0.330682
0.330682
0.330366
0.329732
0.328782
0.327516
0.325936
0.324042
0.321835
0.319317
0.31649
0.313356
0.309917
0.306175
0.302133
0.297793
0.293159
0.288234
0.283022
0.277527
0.271751
0.265701
0.259379
0.252792
0.245944
0.23884
0.231486
0.223888
0.216053
0.207985
0.199693
0.191183
0.182463
0.173541
0.164423
0.15512
0.145638
0.135989
0.12618
0.116221
0.106123
0.0958964
0.0855519
0.0751007
0.0645547
0.0539261
0.0432274
0.0324716
0.0216724
0.0108437
0
0
0.0108021
0.0215892
0.032347
0.0430614
0.0537191
0.0643069
0.0748124
0.0852234
0.0955282
0.105716
0.115775
0.125695
0.135466
0.145079
0.154524
0.163792
0.172874
0.181762
0.190449
0.198926
0.207186
0.215222
0.223028
0.230596
0.237922
0.244998
0.25182
0.258382
0.264679
0.270706
0.276459
0.281933
0.287125
0.292031
0.296647
0.30097
0.304997
0.308724
0.31215
0.315272
0.318088
0.320596
0.322794
0.324681
0.326255
0.327516
0.328463
0.329094
0.329409
0.329409
0.329094
0.328463
0.327516
0.326255
0.324681
0.322794
0.320596
0.318088
0.315272
0.31215
0.308724
0.304997
0.30097
0.296647
0.292031
0.287125
0.281933
0.276459
0.270706
0.264679
0.258382
0.25182
0.244998
0.237922
0.230596
0.223028
0.215222
0.207186
0.198926
0.190449
0.181762
0.172874
0.163792
0.154524
0.145079
0.135466
0.125695
0.115775
0.105716
0.0955282
0.0852234
0.0748124
0.0643069
0.0537191
0.0430614
0.032347
0.0215892
0.0108021
0
0
0.0107501
0.0214853
0.0321913
0.0428542
0.0534605
0.0639974
0.0744523
0.0848131
0.0950683
0.105207
0.115217
0.12509
0.134814
0.14438
0.153779
0.163003
0.172041
0.180886
0.189531
0.197967
0.206187
0.214185
0.221953
0.229485
0.236775
0.243817
0.250606
0.257136
0.263402
0.2694
0.275126
0.280574
0.285741
0.290623
0.295216
0.299518
0.303525
0.307235
0.310644
0.313751
0.316553
0.319049
0.321237
0.323114
0.324681
0.325936
0.326878
0.327506
0.32782
0.32782
0.327506
0.326878
0.325936
0.324681
0.323114
0.321237
0.319049
0.316553
0.313751
0.310644
0.307235
0.303525
0.299518
0.295216
0.290623
0.285741
0.280574
0.275126
0.2694
0.263402
0.257136
0.250606
0.243817
0.236775
0.229485
0.221953
0.214185
0.206187
0.197967
0.189531
0.180886
0.172041
0.163003
0.153779
0.14438
0.134814
0.12509
0.115217
0.105207
0.0950683
0.0848131
0.0744523
0.0639974
0.0534605
0.0428542
0.0321913
0.0214853
0.0107501
0
0
0.0106878
0.0213608
0.0320047
0.0426058
0.0531506
0.0636264
0.0740207
0.0843214
0.0945171
0.104597
0.114549
0.124364
0.134032
0.143543
0.152887
0.162057
0.171043
0.179837
0.188431
0.196818
0.204991
0.212941
0.220664
0.228152
0.2354
0.242401
0.24915
0.255643
0.261873
0.267836
0.273528
0.278944
0.284081
0.288934
0.293501
0.297778
0.301762
0.30545
0.308839
0.311928
0.314714
0.317195
0.31937
0.321237
0.322794
0.324042
0.324978
0.325602
0.325915
0.325915
0.325602
0.324978
0.324042
0.322794
0.321237
0.31937
0.317195
0.314714
0.311928
0.308839
0.30545
0.301762
0.297778
0.293501
0.288934
0.284081
0.278944
0.273528
0.267836
0.261873
0.255643
0.24915
0.242401
0.2354
0.228152
0.220664
0.212941
0.204991
0.196818
0.188431
0.179837
0.171043
0.162057
0.152887
0.143543
0.134032
0.124364
0.114549
0.104597
0.0945171
0.0843214
0.0740207
0.0636264
0.0531506
0.0426058
0.0320047
0.0213608
0.0106878
0
0
0.0106152
0.0212157
0.0317874
0.0423164
0.0527896
0.0631942
0.0735178
0.0837486
0.093875
0.103886
0.113771
0.123519
0.133121
0.142567
0.151848
0.160955
0.16988
0.178614
0.18715
0.19548
0.203596
0.211493
0.219163
0.2266
0.233798
0.240752
0.247455
0.253903
0.260091
0.266013
0.271666
0.277045
0.282147
0.286967
0.291503
0.295751
0.299707
0.30337
0.306736
0.309804
0.312571
0.315035
0.317195
0.319049
0.320596
0.321835
0.322765
0.323385
0.323695
0.323695
0.323385
0.322765
0.321835
0.320596
0.319049
0.317195
0.315035
0.312571
0.309804
0.306736
0.30337
0.299707
0.295751
0.291503
0.286967
0.282147
0.277045
0.271666
0.266013
0.260091
0.253903
0.247455
0.240752
0.233798
0.2266
0.219163
0.211493
0.203596
0.19548
0.18715
0.178614
0.16988
0.160955
0.151848
0.142567
0.133121
0.123519
0.113771
0.103886
0.093875
0.0837486
0.0735178
0.0631942
0.0527896
0.0423164
0.0317874
0.0212157
0.0106152
0
0
0.0105324
0.0210502
0.0315394
0.0419863
0.0523777
0.0627011
0.0729442
0.083095
0.0931423
0.103075
0.112883
0.122555
0.132082
0.141454
0.150662
0.159698
0.168553
0.177219
0.185688
0.193953
0.202006
0.209841
0.217451
0.22483
0.231971
0.23887
0.245521
0.251918
0.258057
0.263933
0.269542
0.274879
0.279941
0.284723
0.289223
0.293438
0.297363
0.300997
0.304337
0.307381
0.310126
0.312571
0.314714
0.316553
0.318088
0.319317
0.32024
0.320855
0.321163
0.321163
0.320855
0.32024
0.319317
0.318088
0.316553
0.314714
0.312571
0.310126
0.307381
0.304337
0.300997
0.297363
0.293438
0.289223
0.284723
0.279941
0.274879
0.269542
0.263933
0.258057
0.251918
0.245521
0.23887
0.231971
0.22483
0.217451
0.209841
0.202006
0.193953
0.185688
0.177219
0.168553
0.159698
0.150662
0.141454
0.132082
0.122555
0.112883
0.103075
0.0931423
0.083095
0.0729442
0.0627011
0.0523777
0.0419863
0.0315394
0.0210502
0.0105324
0
0
0.0104394
0.0208644
0.0312609
0.0416155
0.0519152
0.0621474
0.0723
0.0823611
0.0923196
0.102165
0.111885
0.121472
0.130915
0.140204
0.149331
0.158287
0.167064
0.175653
0.184047
0.192238
0.20022
0.207985
0.215528
0.222841
0.22992
0.236758
0.243349
0.24969
0.255774
0.261598
0.267157
0.272447
0.277464
0.282204
0.286664
0.290841
0.294731
0.298333
0.301643
0.30466
0.307381
0.309804
0.311928
0.313751
0.315272
0.31649
0.317405
0.318015
0.31832
0.31832
0.318015
0.317405
0.31649
0.315272
0.313751
0.311928
0.309804
0.307381
0.30466
0.301643
0.298333
0.294731
0.290841
0.286664
0.282204
0.277464
0.272447
0.267157
0.261598
0.255774
0.24969
0.243349
0.236758
0.22992
0.222841
0.215528
0.207985
0.20022
0.192238
0.184047
0.175653
0.167064
0.158287
0.149331
0.140204
0.130915
0.121472
0.111885
0.102165
0.0923196
0.0823611
0.0723
0.0621474
0.0519152
0.0416155
0.0312609
0.0208644
0.0104394
0
0
0.0103363
0.0206583
0.0309521
0.0412045
0.0514024
0.0615335
0.0715857
0.0815474
0.0914075
0.101155
0.11078
0.120272
0.129621
0.138818
0.147855
0.156722
0.165412
0.173916
0.182227
0.190337
0.19824
0.205928
0.213396
0.220637
0.227645
0.234415
0.240941
0.247219
0.253243
0.259009
0.264513
0.26975
0.274717
0.27941
0.283826
0.287961
0.291813
0.295379
0.298657
0.301643
0.304337
0.306736
0.308839
0.310644
0.31215
0.313356
0.314261
0.314865
0.315167
0.315167
0.314865
0.314261
0.313356
0.31215
0.310644
0.308839
0.306736
0.304337
0.301643
0.298657
0.295379
0.291813
0.287961
0.283826
0.27941
0.274717
0.26975
0.264513
0.259009
0.253243
0.247219
0.240941
0.234415
0.227645
0.220637
0.213396
0.205928
0.19824
0.190337
0.182227
0.173916
0.165412
0.156722
0.147855
0.138818
0.129621
0.120272
0.11078
0.101155
0.0914075
0.0815474
0.0715857
0.0615335
0.0514024
0.0412045
0.0309521
0.0206583
0.0103363
0
0
0.0102232
0.0204321
0.0306133
0.0407534
0.0508397
0.0608598
0.0708019
0.0806545
0.0904065
0.100047
0.109566
0.118954
0.128201
0.137297
0.146235
0.155005
0.163599
0.17201
0.180229
0.188251
0.196067
0.203671
0.211056
0.218218
0.225149
0.231844
0.238299
0.244508
0.250465
0.256168
0.261611
0.266791
0.271703
0.276345
0.280712
0.284802
0.288611
0.292138
0.295379
0.298333
0.300997
0.30337
0.30545
0.307235
0.308724
0.309917
0.310812
0.311409
0.311708
0.311708
0.311409
0.310812
0.309917
0.308724
0.307235
0.30545
0.30337
0.300997
0.298333
0.295379
0.292138
0.288611
0.284802
0.280712
0.276345
0.271703
0.266791
0.261611
0.256168
0.250465
0.244508
0.238299
0.231844
0.225149
0.218218
0.211056
0.203671
0.196067
0.188251
0.180229
0.17201
0.163599
0.155005
0.146235
0.137297
0.128201
0.118954
0.109566
0.100047
0.0904065
0.0806545
0.0708019
0.0608598
0.0508397
0.0407534
0.0306133
0.0204321
0.0102232
0
0
0.0101
0.0201861
0.0302446
0.0402626
0.0502273
0.0601267
0.069949
0.0796829
0.0893173
0.0988418
0.108246
0.117521
0.126656
0.135643
0.144472
0.153136
0.161627
0.169936
0.178056
0.185981
0.193702
0.201214
0.208511
0.215585
0.222433
0.229047
0.235424
0.241557
0.247443
0.253077
0.258454
0.263571
0.268424
0.273009
0.277323
0.281364
0.285127
0.288611
0.291813
0.294731
0.297363
0.299707
0.301762
0.303525
0.304997
0.306175
0.307059
0.307649
0.307944
0.307944
0.307649
0.307059
0.306175
0.304997
0.303525
0.301762
0.299707
0.297363
0.294731
0.291813
0.288611
0.285127
0.281364
0.277323
0.273009
0.268424
0.263571
0.258454
0.253077
0.247443
0.241557
0.235424
0.229047
0.222433
0.215585
0.208511
0.201214
0.193702
0.185981
0.178056
0.169936
0.161627
0.153136
0.144472
0.135643
0.126656
0.117521
0.108246
0.0988418
0.0893173
0.0796829
0.069949
0.0601267
0.0502273
0.0402626
0.0302446
0.0201861
0.0101
0
0
0.00996704
0.0199203
0.0298463
0.0397323
0.0495658
0.0593348
0.0690277
0.0786332
0.0881407
0.0975396
0.10682
0.115972
0.124987
0.133855
0.142568
0.151118
0.159496
0.167696
0.175709
0.183528
0.191148
0.198561
0.205761
0.212742
0.219499
0.226026
0.232318
0.238371
0.244179
0.249738
0.255044
0.260093
0.264882
0.269406
0.273663
0.27765
0.281364
0.284802
0.287961
0.290841
0.293438
0.295751
0.297778
0.299518
0.30097
0.302133
0.303005
0.303587
0.303879
0.303879
0.303587
0.303005
0.302133
0.30097
0.299518
0.297778
0.295751
0.293438
0.290841
0.287961
0.284802
0.281364
0.27765
0.273663
0.269406
0.264882
0.260093
0.255044
0.249738
0.244179
0.238371
0.232318
0.226026
0.219499
0.212742
0.205761
0.198561
0.191148
0.183528
0.175709
0.167696
0.159496
0.151118
0.142568
0.133855
0.124987
0.115972
0.10682
0.0975396
0.0881407
0.0786332
0.0690277
0.0593348
0.0495658
0.0397323
0.0298463
0.0199203
0.00996704
0
0
0.00982425
0.0196349
0.0294187
0.0391631
0.0488556
0.0584846
0.0680385
0.0775064
0.0868775
0.0961416
0.105289
0.11431
0.123195
0.131936
0.140524
0.148951
0.157209
0.165291
0.173189
0.180896
0.188406
0.195712
0.202809
0.209689
0.216349
0.222782
0.228984
0.234949
0.240674
0.246153
0.251382
0.256359
0.261079
0.265538
0.269734
0.273663
0.277323
0.280712
0.283826
0.286664
0.289223
0.291503
0.293501
0.295216
0.296647
0.297793
0.298653
0.299227
0.299514
0.299514
0.299227
0.298653
0.297793
0.296647
0.295216
0.293501
0.291503
0.289223
0.286664
0.283826
0.280712
0.277323
0.273663
0.269734
0.265538
0.261079
0.256359
0.251382
0.246153
0.240674
0.234949
0.228984
0.222782
0.216349
0.209689
0.202809
0.195712
0.188406
0.180896
0.173189
0.165291
0.157209
0.148951
0.140524
0.131936
0.123195
0.11431
0.105289
0.0961416
0.0868775
0.0775064
0.0680385
0.0584846
0.0488556
0.0391631
0.0294187
0.0196349
0.00982425
0
0
0.00967176
0.0193301
0.0289621
0.0385551
0.0480972
0.0575767
0.0669822
0.076303
0.0855285
0.0946487
0.103654
0.112534
0.121282
0.129887
0.138341
0.146637
0.154767
0.162722
0.170497
0.178085
0.185478
0.19267
0.199656
0.20643
0.212986
0.219319
0.225424
0.231296
0.236931
0.242325
0.247473
0.252372
0.257018
0.261408
0.265538
0.269406
0.273009
0.276345
0.27941
0.282204
0.284723
0.286967
0.288934
0.290623
0.292031
0.293159
0.294006
0.294571
0.294853
0.294853
0.294571
0.294006
0.293159
0.292031
0.290623
0.288934
0.286967
0.284723
0.282204
0.27941
0.276345
0.273009
0.269406
0.265538
0.261408
0.257018
0.252372
0.247473
0.242325
0.236931
0.231296
0.225424
0.219319
0.212986
0.20643
0.199656
0.19267
0.185478
0.178085
0.170497
0.162722
0.154767
0.146637
0.138341
0.129887
0.121282
0.112534
0.103654
0.0946487
0.0855285
0.076303
0.0669822
0.0575767
0.0480972
0.0385551
0.0289621
0.0193301
0.00967176
0
0
0.00950969
0.0190062
0.0284767
0.037909
0.0472912
0.0566117
0.0658595
0.075024
0.0840948
0.0930619
0.101916
0.110648
0.119248
0.127708
0.136021
0.144177
0.15217
0.159993
0.167637
0.175097
0.182365
0.189437
0.196305
0.202965
0.209411
0.215637
0.22164
0.227413
0.232953
0.238256
0.243318
0.248134
0.252702
0.257018
0.261079
0.264882
0.268424
0.271703
0.274717
0.277464
0.279941
0.282147
0.284081
0.285741
0.287125
0.288234
0.289067
0.289622
0.2899
0.2899
0.289622
0.289067
0.288234
0.287125
0.285741
0.284081
0.282147
0.279941
0.277464
0.274717
0.271703
0.268424
0.264882
0.261079
0.257018
0.252702
0.248134
0.243318
0.238256
0.232953
0.227413
0.22164
0.215637
0.209411
0.202965
0.196305
0.189437
0.182365
0.175097
0.167637
0.159993
0.15217
0.144177
0.136021
0.127708
0.119248
0.110648
0.101916
0.0930619
0.0840948
0.075024
0.0658595
0.0566117
0.0472912
0.037909
0.0284767
0.0190062
0.00950969
0
0
0.00933814
0.0186633
0.027963
0.0372251
0.046438
0.0555903
0.0646712
0.0736702
0.0825772
0.0913825
0.100077
0.10865
0.117095
0.125403
0.133565
0.141574
0.149423
0.157104
0.16461
0.171934
0.179072
0.186015
0.192759
0.199298
0.205627
0.211741
0.217635
0.223303
0.228743
0.23395
0.23892
0.243649
0.248134
0.252372
0.256359
0.260093
0.263571
0.266791
0.26975
0.272447
0.274879
0.277045
0.278944
0.280574
0.281933
0.283022
0.28384
0.284385
0.284658
0.284658
0.284385
0.28384
0.283022
0.281933
0.280574
0.278944
0.277045
0.274879
0.272447
0.26975
0.266791
0.263571
0.260093
0.256359
0.252372
0.248134
0.243649
0.23892
0.23395
0.228743
0.223303
0.217635
0.211741
0.205627
0.199298
0.192759
0.186015
0.179072
0.171934
0.16461
0.157104
0.149423
0.141574
0.133565
0.125403
0.117095
0.10865
0.100077
0.0913825
0.0825772
0.0736702
0.0646712
0.0555903
0.046438
0.0372251
0.027963
0.0186633
0.00933814
0
0
0.00915725
0.0183018
0.0274213
0.0365039
0.0455383
0.0545132
0.0634181
0.0722427
0.080977
0.0896115
0.0981369
0.106544
0.114826
0.122972
0.130976
0.138829
0.146525
0.154057
0.161417
0.1686
0.175598
0.182407
0.18902
0.195432
0.201638
0.207633
0.213412
0.21897
0.224304
0.22941
0.234283
0.23892
0.243318
0.247473
0.251382
0.255044
0.258454
0.261611
0.264513
0.267157
0.269542
0.271666
0.273528
0.275126
0.276459
0.277527
0.278328
0.278863
0.27913
0.27913
0.278863
0.278328
0.277527
0.276459
0.275126
0.273528
0.271666
0.269542
0.267157
0.264513
0.261611
0.258454
0.255044
0.251382
0.247473
0.243318
0.23892
0.234283
0.22941
0.224304
0.21897
0.213412
0.207633
0.201638
0.195432
0.18902
0.182407
0.175598
0.1686
0.161417
0.154057
0.146525
0.138829
0.130976
0.122972
0.114826
0.106544
0.0981369
0.0896115
0.080977
0.0722427
0.0634181
0.0545132
0.0455383
0.0365039
0.0274213
0.0183018
0.00915725
0
0
0.00896713
0.0179218
0.026852
0.035746
0.0445927
0.0533812
0.0621012
0.0707424
0.0792952
0.0877502
0.0960985
0.104331
0.11244
0.120417
0.128254
0.135945
0.143481
0.150855
0.158062
0.165095
0.171948
0.178615
0.18509
0.191369
0.197445
0.203315
0.208974
0.214416
0.219639
0.224638
0.22941
0.23395
0.238256
0.242325
0.246153
0.249738
0.253077
0.256168
0.259009
0.261598
0.263933
0.266013
0.267836
0.2694
0.270706
0.271751
0.272536
0.273059
0.273321
0.273321
0.273059
0.272536
0.271751
0.270706
0.2694
0.267836
0.266013
0.263933
0.261598
0.259009
0.256168
0.253077
0.249738
0.246153
0.242325
0.238256
0.23395
0.22941
0.224638
0.219639
0.214416
0.208974
0.203315
0.197445
0.191369
0.18509
0.178615
0.171948
0.165095
0.158062
0.150855
0.143481
0.135945
0.128254
0.120417
0.11244
0.104331
0.0960985
0.0877502
0.0792952
0.0707424
0.0621012
0.0533812
0.0445927
0.035746
0.026852
0.0179218
0.00896713
0
0
0.00876793
0.0175237
0.0262554
0.0349519
0.043602
0.0521952
0.0607213
0.0691704
0.0775331
0.0858001
0.0939627
0.102012
0.109941
0.11774
0.125403
0.132922
0.14029
0.147501
0.154547
0.161424
0.168124
0.174642
0.180973
0.187112
0.193053
0.198792
0.204324
0.209645
0.214752
0.219639
0.224304
0.228743
0.232953
0.236931
0.240674
0.244179
0.247443
0.250465
0.253243
0.255774
0.258057
0.260091
0.261873
0.263402
0.264679
0.265701
0.266468
0.26698
0.267236
0.267236
0.26698
0.266468
0.265701
0.264679
0.263402
0.261873
0.260091
0.258057
0.255774
0.253243
0.250465
0.247443
0.244179
0.240674
0.236931
0.232953
0.228743
0.224304
0.219639
0.214752
0.209645
0.204324
0.198792
0.193053
0.187112
0.180973
0.174642
0.168124
0.161424
0.154547
0.147501
0.14029
0.132922
0.125403
0.11774
0.109941
0.102012
0.0939627
0.0858001
0.0775331
0.0691704
0.0607213
0.0521952
0.043602
0.0349519
0.0262554
0.0175237
0.00876793
0
0
0.0085598
0.0171077
0.0256322
0.0341221
0.0425668
0.050956
0.0592796
0.067528
0.075692
0.0837626
0.0917311
0.0995894
0.107329
0.114943
0.122424
0.129764
0.136957
0.143996
0.150875
0.157587
0.164128
0.170491
0.176671
0.182664
0.188463
0.194066
0.199466
0.204661
0.209645
0.214416
0.21897
0.223303
0.227413
0.231296
0.234949
0.238371
0.241557
0.244508
0.247219
0.24969
0.251918
0.253903
0.255643
0.257136
0.258382
0.259379
0.260128
0.260628
0.260878
0.260878
0.260628
0.260128
0.259379
0.258382
0.257136
0.255643
0.253903
0.251918
0.24969
0.247219
0.244508
0.241557
0.238371
0.234949
0.231296
0.227413
0.223303
0.21897
0.214416
0.209645
0.204661
0.199466
0.194066
0.188463
0.182664
0.176671
0.170491
0.164128
0.157587
0.150875
0.143996
0.136957
0.129764
0.122424
0.114943
0.107329
0.0995894
0.0917311
0.0837626
0.075692
0.067528
0.0592796
0.050956
0.0425668
0.0341221
0.0256322
0.0171077
0.0085598
0
0
0.00834288
0.0166742
0.0249826
0.0332574
0.041488
0.0496645
0.057777
0.0658163
0.0737732
0.0816391
0.0894055
0.0970643
0.104608
0.112029
0.119319
0.126473
0.133483
0.140344
0.147048
0.15359
0.159964
0.166165
0.172189
0.178029
0.183681
0.18914
0.194404
0.199466
0.204324
0.208974
0.213412
0.217635
0.22164
0.225424
0.228984
0.232318
0.235424
0.238299
0.240941
0.243349
0.245521
0.247455
0.24915
0.250606
0.25182
0.252792
0.253522
0.254009
0.254252
0.254252
0.254009
0.253522
0.252792
0.25182
0.250606
0.24915
0.247455
0.245521
0.243349
0.240941
0.238299
0.235424
0.232318
0.228984
0.225424
0.22164
0.217635
0.213412
0.208974
0.204324
0.199466
0.194404
0.18914
0.183681
0.178029
0.172189
0.166165
0.159964
0.15359
0.147048
0.140344
0.133483
0.126473
0.119319
0.112029
0.104608
0.0970643
0.0894055
0.0816391
0.0737732
0.0658163
0.057777
0.0496645
0.041488
0.0332574
0.0249826
0.0166742
0.00834288
0
0
0.00811735
0.0162234
0.0243072
0.0323582
0.0403663
0.0483217
0.0562148
0.0640366
0.0717782
0.0794312
0.0869875
0.094439
0.101778
0.108998
0.116091
0.123051
0.129872
0.136546
0.143068
0.149433
0.155635
0.161668
0.167528
0.17321
0.178708
0.18402
0.18914
0.194066
0.198792
0.203315
0.207633
0.211741
0.215637
0.219319
0.222782
0.226026
0.229047
0.231844
0.234415
0.236758
0.23887
0.240752
0.242401
0.243817
0.244998
0.245944
0.246654
0.247127
0.247364
0.247364
0.247127
0.246654
0.245944
0.244998
0.243817
0.242401
0.240752
0.23887
0.236758
0.234415
0.231844
0.229047
0.226026
0.222782
0.219319
0.215637
0.211741
0.207633
0.203315
0.198792
0.194066
0.18914
0.18402
0.178708
0.17321
0.167528
0.161668
0.155635
0.149433
0.143068
0.136546
0.129872
0.123051
0.116091
0.108998
0.101778
0.094439
0.0869875
0.0794312
0.0717782
0.0640366
0.0562148
0.0483217
0.0403663
0.0323582
0.0243072
0.0162234
0.00811735
0
0
0.00788337
0.0157557
0.0236065
0.0314255
0.0392027
0.0469286
0.0545941
0.0621903
0.0697086
0.0771408
0.084479
0.0917155
0.098843
0.105854
0.112743
0.119502
0.126125
0.132607
0.138941
0.145121
0.151144
0.157003
0.162693
0.16821
0.17355
0.178708
0.183681
0.188463
0.193053
0.197445
0.201638
0.205627
0.209411
0.212986
0.216349
0.219499
0.222433
0.225149
0.227645
0.22992
0.231971
0.233798
0.2354
0.236775
0.237922
0.23884
0.239529
0.239989
0.240219
0.240219
0.239989
0.239529
0.23884
0.237922
0.236775
0.2354
0.233798
0.231971
0.22992
0.227645
0.225149
0.222433
0.219499
0.216349
0.212986
0.209411
0.205627
0.201638
0.197445
0.193053
0.188463
0.183681
0.178708
0.17355
0.16821
0.162693
0.157003
0.151144
0.145121
0.138941
0.132607
0.126125
0.119502
0.112743
0.105854
0.098843
0.0917155
0.084479
0.0771408
0.0697086
0.0621903
0.0545941
0.0469286
0.0392027
0.0314255
0.0236065
0.0157557
0.00788337
0
0
0.00764113
0.0152716
0.0228811
0.0304597
0.0379979
0.0454863
0.0529162
0.0602788
0.0675659
0.0747695
0.081882
0.0888958
0.095804
0.1026
0.109276
0.115827
0.122246
0.128528
0.134667
0.140658
0.146494
0.152173
0.157688
0.163035
0.16821
0.17321
0.178029
0.182664
0.187112
0.191369
0.195432
0.199298
0.202965
0.20643
0.209689
0.212742
0.215585
0.218218
0.220637
0.222841
0.22483
0.2266
0.228152
0.229485
0.230596
0.231486
0.232154
0.2326
0.232823
0.232823
0.2326
0.232154
0.231486
0.230596
0.229485
0.228152
0.2266
0.22483
0.222841
0.220637
0.218218
0.215585
0.212742
0.209689
0.20643
0.202965
0.199298
0.195432
0.191369
0.187112
0.182664
0.178029
0.17321
0.16821
0.163035
0.157688
0.152173
0.146494
0.140658
0.134667
0.128528
0.122246
0.115827
0.109276
0.1026
0.095804
0.0888958
0.081882
0.0747695
0.0675659
0.0602788
0.0529162
0.0454863
0.0379979
0.0304597
0.0228811
0.0152716
0.00764113
0
0
0.00739081
0.0147713
0.0221315
0.0294618
0.036753
0.043996
0.0511823
0.0583036
0.0653518
0.0723192
0.0791984
0.0859823
0.0926638
0.0992365
0.105694
0.11203
0.118239
0.124314
0.130252
0.136045
0.14169
0.147182
0.152516
0.157688
0.162693
0.167528
0.172189
0.176671
0.180973
0.18509
0.18902
0.192759
0.196305
0.199656
0.202809
0.205761
0.208511
0.211056
0.213396
0.215528
0.217451
0.219163
0.220664
0.221953
0.223028
0.223888
0.224535
0.224966
0.225181
0.225181
0.224966
0.224535
0.223888
0.223028
0.221953
0.220664
0.219163
0.217451
0.215528
0.213396
0.211056
0.208511
0.205761
0.202809
0.199656
0.196305
0.192759
0.18902
0.18509
0.180973
0.176671
0.172189
0.167528
0.162693
0.157688
0.152516
0.147182
0.14169
0.136045
0.130252
0.124314
0.118239
0.11203
0.105694
0.0992365
0.0926638
0.0859823
0.0791984
0.0723192
0.0653518
0.0583036
0.0511823
0.043996
0.036753
0.0294618
0.0221315
0.0147713
0.00739081
0
0
0.00713261
0.0142553
0.0213583
0.0284325
0.0354689
0.0424588
0.049394
0.0562663
0.0630681
0.0697919
0.0764306
0.0829772
0.089425
0.0957677
0.101999
0.108113
0.114105
0.119968
0.125697
0.131288
0.136736
0.142035
0.147182
0.152173
0.157003
0.161668
0.166165
0.170491
0.174642
0.178615
0.182407
0.186015
0.189437
0.19267
0.195712
0.198561
0.201214
0.203671
0.205928
0.207985
0.209841
0.211493
0.212941
0.214185
0.215222
0.216053
0.216676
0.217092
0.2173
0.2173
0.217092
0.216676
0.216053
0.215222
0.214185
0.212941
0.211493
0.209841
0.207985
0.205928
0.203671
0.201214
0.198561
0.195712
0.19267
0.189437
0.186015
0.182407
0.178615
0.174642
0.170491
0.166165
0.161668
0.157003
0.152173
0.147182
0.142035
0.136736
0.131288
0.125697
0.119968
0.114105
0.108113
0.101999
0.0957677
0.089425
0.0829772
0.0764306
0.0697919
0.0630681
0.0562663
0.049394
0.0424588
0.0354689
0.0284325
0.0213583
0.0142553
0.00713261
0
0
0.00686675
0.0137239
0.0205622
0.0273727
0.0341467
0.040876
0.0475525
0.0541686
0.0607167
0.0671897
0.0735806
0.0798829
0.0860901
0.0921961
0.0981949
0.104081
0.109849
0.115493
0.121008
0.12639
0.131634
0.136736
0.14169
0.146494
0.151144
0.155635
0.159964
0.164128
0.168124
0.171948
0.175598
0.179072
0.182365
0.185478
0.188406
0.191148
0.193702
0.196067
0.19824
0.20022
0.202006
0.203596
0.204991
0.206187
0.207186
0.207985
0.208585
0.208986
0.209186
0.209186
0.208986
0.208585
0.207985
0.207186
0.206187
0.204991
0.203596
0.202006
0.20022
0.19824
0.196067
0.193702
0.191148
0.188406
0.185478
0.182365
0.179072
0.175598
0.171948
0.168124
0.164128
0.159964
0.155635
0.151144
0.146494
0.14169
0.136736
0.131634
0.12639
0.121008
0.115493
0.109849
0.104081
0.0981949
0.0921961
0.0860901
0.0798829
0.0735806
0.0671897
0.0607167
0.0541686
0.0475525
0.040876
0.0341467
0.0273727
0.0205622
0.0137239
0.00686675
0
0
0.00659345
0.0131777
0.0197438
0.0262831
0.0327875
0.0392489
0.0456595
0.0520121
0.0582994
0.0645146
0.0706509
0.0767021
0.082662
0.0885246
0.0942844
0.0999357
0.105473
0.110892
0.116188
0.121355
0.12639
0.131288
0.136045
0.140658
0.145121
0.149433
0.15359
0.157587
0.161424
0.165095
0.1686
0.171934
0.175097
0.178085
0.180896
0.183528
0.185981
0.188251
0.190337
0.192238
0.193953
0.19548
0.196818
0.197967
0.198926
0.199693
0.200269
0.200654
0.200846
0.200846
0.200654
0.200269
0.199693
0.198926
0.197967
0.196818
0.19548
0.193953
0.192238
0.190337
0.188251
0.185981
0.183528
0.180896
0.178085
0.175097
0.171934
0.1686
0.165095
0.161424
0.157587
0.15359
0.149433
0.145121
0.140658
0.136045
0.131288
0.12639
0.121355
0.116188
0.110892
0.105473
0.0999357
0.0942844
0.0885246
0.082662
0.0767021
0.0706509
0.0645146
0.0582994
0.0520121
0.0456595
0.0392489
0.0327875
0.0262831
0.0197438
0.0131777
0.00659345
0
0
0.00631292
0.012617
0.0189037
0.0251648
0.0313924
0.0375788
0.0437166
0.0497987
0.0558184
0.0617689
0.067644
0.0734374
0.0791435
0.0847564
0.0902707
0.0956812
0.100983
0.106171
0.111241
0.116188
0.121008
0.125697
0.130252
0.134667
0.138941
0.143068
0.147048
0.150875
0.154547
0.158062
0.161417
0.16461
0.167637
0.170497
0.173189
0.175709
0.178056
0.180229
0.182227
0.184047
0.185688
0.18715
0.188431
0.189531
0.190449
0.191183
0.191735
0.192103
0.192287
0.192287
0.192103
0.191735
0.191183
0.190449
0.189531
0.188431
0.18715
0.185688
0.184047
0.182227
0.180229
0.178056
0.175709
0.173189
0.170497
0.167637
0.16461
0.161417
0.158062
0.154547
0.150875
0.147048
0.143068
0.138941
0.134667
0.130252
0.125697
0.121008
0.116188
0.111241
0.106171
0.100983
0.0956812
0.0902707
0.0847564
0.0791435
0.0734374
0.067644
0.0617689
0.0558184
0.0497987
0.0437166
0.0375788
0.0313924
0.0251648
0.0189037
0.012617
0.00631292
0
0
0.00602542
0.0120424
0.0180428
0.0240187
0.0299626
0.0358672
0.0417253
0.0475304
0.0532757
0.058955
0.0645623
0.0700917
0.0755375
0.0808945
0.0861574
0.0913212
0.0963811
0.101333
0.106171
0.110892
0.115493
0.119968
0.124314
0.128528
0.132607
0.136546
0.140344
0.143996
0.147501
0.150855
0.154057
0.157104
0.159993
0.162722
0.165291
0.167696
0.169936
0.17201
0.173916
0.175653
0.177219
0.178614
0.179837
0.180886
0.181762
0.182463
0.18299
0.183341
0.183516
0.183516
0.183341
0.18299
0.182463
0.181762
0.180886
0.179837
0.178614
0.177219
0.175653
0.173916
0.17201
0.169936
0.167696
0.165291
0.162722
0.159993
0.157104
0.154057
0.150855
0.147501
0.143996
0.140344
0.136546
0.132607
0.128528
0.124314
0.119968
0.115493
0.110892
0.106171
0.101333
0.0963811
0.0913212
0.0861574
0.0808945
0.0755375
0.0700917
0.0645623
0.058955
0.0532757
0.0475304
0.0417253
0.0358672
0.0299626
0.0240187
0.0180428
0.0120424
0.00602542
0
0
0.00573119
0.0114543
0.0171617
0.0228458
0.0284993
0.0341155
0.0396875
0.0452089
0.0506735
0.0560753
0.0614086
0.0666677
0.0718474
0.0769425
0.0819481
0.0868593
0.0916718
0.0963811
0.100983
0.105473
0.109849
0.114105
0.118239
0.122246
0.126125
0.129872
0.133483
0.136957
0.14029
0.143481
0.146525
0.149423
0.15217
0.154767
0.157209
0.159496
0.161627
0.163599
0.165412
0.167064
0.168553
0.16988
0.171043
0.172041
0.172874
0.173541
0.174041
0.174375
0.174542
0.174542
0.174375
0.174041
0.173541
0.172874
0.172041
0.171043
0.16988
0.168553
0.167064
0.165412
0.163599
0.161627
0.159496
0.157209
0.154767
0.15217
0.149423
0.146525
0.143481
0.14029
0.136957
0.133483
0.129872
0.126125
0.122246
0.118239
0.114105
0.109849
0.105473
0.100983
0.0963811
0.0916718
0.0868593
0.0819481
0.0769425
0.0718474
0.0666677
0.0614086
0.0560753
0.0506735
0.0452089
0.0396875
0.0341155
0.0284993
0.0228458
0.0171617
0.0114543
0.00573119
0
0
0.00543049
0.0108534
0.0162612
0.0216471
0.027004
0.0323254
0.0376049
0.0428365
0.0480143
0.0531325
0.0581857
0.0631686
0.0680763
0.0729038
0.0776464
0.0822997
0.0868593
0.0913212
0.0956812
0.0999357
0.104081
0.108113
0.11203
0.115827
0.119502
0.123051
0.126473
0.129764
0.132922
0.135945
0.138829
0.141574
0.144177
0.146637
0.148951
0.151118
0.153136
0.155005
0.156722
0.158287
0.159698
0.160955
0.162057
0.163003
0.163792
0.164423
0.164898
0.165214
0.165372
0.165372
0.165214
0.164898
0.164423
0.163792
0.163003
0.162057
0.160955
0.159698
0.158287
0.156722
0.155005
0.153136
0.151118
0.148951
0.146637
0.144177
0.141574
0.138829
0.135945
0.132922
0.129764
0.126473
0.123051
0.119502
0.115827
0.11203
0.108113
0.104081
0.0999357
0.0956812
0.0913212
0.0868593
0.0822997
0.0776464
0.0729038
0.0680763
0.0631686
0.0581857
0.0531325
0.0480143
0.0428365
0.0376049
0.0323254
0.027004
0.0216471
0.0162612
0.0108534
0.00543049
0
0
0.0051236
0.01024
0.0153422
0.0204236
0.0254778
0.0304984
0.0354795
0.0404153
0.0453003
0.050129
0.0548965
0.0595976
0.0642277
0.0687821
0.0732564
0.0776464
0.0819481
0.0861574
0.0902707
0.0942844
0.0981949
0.101999
0.105694
0.109276
0.112743
0.116091
0.119319
0.122424
0.125403
0.128254
0.130976
0.133565
0.136021
0.138341
0.140524
0.142568
0.144472
0.146235
0.147855
0.149331
0.150662
0.151848
0.152887
0.153779
0.154524
0.15512
0.155567
0.155865
0.156015
0.156015
0.155865
0.155567
0.15512
0.154524
0.153779
0.152887
0.151848
0.150662
0.149331
0.147855
0.146235
0.144472
0.142568
0.140524
0.138341
0.136021
0.133565
0.130976
0.128254
0.125403
0.122424
0.119319
0.116091
0.112743
0.109276
0.105694
0.101999
0.0981949
0.0942844
0.0902707
0.0861574
0.0819481
0.0776464
0.0732564
0.0687821
0.0642277
0.0595976
0.0548965
0.050129
0.0453003
0.0404153
0.0354795
0.0304984
0.0254778
0.0204236
0.0153422
0.01024
0.0051236
0
0
0.00481079
0.00961481
0.0144055
0.0191767
0.0239222
0.0286362
0.0333131
0.0379474
0.042534
0.0470679
0.051544
0.055958
0.0603051
0.0645812
0.0687821
0.0729038
0.0769425
0.0808945
0.0847564
0.0885246
0.0921961
0.0957677
0.0992365
0.1026
0.105854
0.108998
0.112029
0.114943
0.11774
0.120417
0.122972
0.125403
0.127708
0.129887
0.131936
0.133855
0.135643
0.137297
0.138818
0.140204
0.141454
0.142567
0.143543
0.14438
0.145079
0.145638
0.146058
0.146339
0.146479
0.146479
0.146339
0.146058
0.145638
0.145079
0.14438
0.143543
0.142567
0.141454
0.140204
0.138818
0.137297
0.135643
0.133855
0.131936
0.129887
0.127708
0.125403
0.122972
0.120417
0.11774
0.114943
0.112029
0.108998
0.105854
0.1026
0.0992365
0.0957677
0.0921961
0.0885246
0.0847564
0.0808945
0.0769425
0.0729038
0.0687821
0.0645812
0.0603051
0.055958
0.051544
0.0470679
0.042534
0.0379474
0.0333131
0.0286362
0.0239222
0.0191767
0.0144055
0.00961481
0.00481079
0
0
0.00449237
0.00897841
0.013452
0.0179073
0.0223387
0.0267406
0.0311078
0.0354353
0.0397182
0.0439518
0.0481315
0.0522531
0.0563123
0.0603051
0.0642277
0.0680763
0.0718474
0.0755375
0.0791435
0.082662
0.0860901
0.089425
0.0926638
0.095804
0.098843
0.101778
0.104608
0.107329
0.109941
0.11244
0.114826
0.117095
0.119248
0.121282
0.123195
0.124987
0.126656
0.128201
0.129621
0.130915
0.132082
0.133121
0.134032
0.134814
0.135466
0.135989
0.136381
0.136642
0.136773
0.136773
0.136642
0.136381
0.135989
0.135466
0.134814
0.134032
0.133121
0.132082
0.130915
0.129621
0.128201
0.126656
0.124987
0.123195
0.121282
0.119248
0.117095
0.114826
0.11244
0.109941
0.107329
0.104608
0.101778
0.098843
0.095804
0.0926638
0.089425
0.0860901
0.082662
0.0791435
0.0755375
0.0718474
0.0680763
0.0642277
0.0603051
0.0563123
0.0522531
0.0481315
0.0439518
0.0397182
0.0354353
0.0311078
0.0267406
0.0223387
0.0179073
0.013452
0.00897841
0.00449237
0
0
0.00416863
0.00833139
0.0124826
0.0166168
0.0207288
0.0248134
0.0288659
0.0328814
0.0368555
0.0407839
0.0446622
0.0484866
0.0522531
0.055958
0.0595976
0.0631686
0.0666677
0.0700917
0.0734374
0.0767021
0.0798829
0.0829772
0.0859823
0.0888958
0.0917155
0.094439
0.0970643
0.0995894
0.102012
0.104331
0.106544
0.10865
0.110648
0.112534
0.11431
0.115972
0.117521
0.118954
0.120272
0.121472
0.122555
0.123519
0.124364
0.12509
0.125695
0.12618
0.126543
0.126786
0.126907
0.126907
0.126786
0.126543
0.12618
0.125695
0.12509
0.124364
0.123519
0.122555
0.121472
0.120272
0.118954
0.117521
0.115972
0.11431
0.112534
0.110648
0.10865
0.106544
0.104331
0.102012
0.0995894
0.0970643
0.094439
0.0917155
0.0888958
0.0859823
0.0829772
0.0798829
0.0767021
0.0734374
0.0700917
0.0666677
0.0631686
0.0595976
0.055958
0.0522531
0.0484866
0.0446622
0.0407839
0.0368555
0.0328814
0.0288659
0.0248134
0.0207288
0.0166168
0.0124826
0.00833139
0.00416863
0
0
0.00383991
0.0076744
0.0114983
0.0153064
0.0190941
0.0228566
0.0265894
0.0302882
0.0339488
0.0375672
0.0411396
0.0446622
0.0481315
0.051544
0.0548965
0.0581857
0.0614086
0.0645623
0.067644
0.0706509
0.0735806
0.0764306
0.0791984
0.081882
0.084479
0.0869875
0.0894055
0.0917311
0.0939627
0.0960985
0.0981369
0.100077
0.101916
0.103654
0.105289
0.10682
0.108246
0.109566
0.11078
0.111885
0.112883
0.113771
0.114549
0.115217
0.115775
0.116221
0.116556
0.11678
0.116891
0.116891
0.11678
0.116556
0.116221
0.115775
0.115217
0.114549
0.113771
0.112883
0.111885
0.11078
0.109566
0.108246
0.10682
0.105289
0.103654
0.101916
0.100077
0.0981369
0.0960985
0.0939627
0.0917311
0.0894055
0.0869875
0.084479
0.081882
0.0791984
0.0764306
0.0735806
0.0706509
0.067644
0.0645623
0.0614086
0.0581857
0.0548965
0.051544
0.0481315
0.0446622
0.0411396
0.0375672
0.0339488
0.0302882
0.0265894
0.0228566
0.0190941
0.0153064
0.0114983
0.0076744
0.00383991
0
0
0.00350653
0.00700811
0.0105
0.0139775
0.0174363
0.020872
0.0242807
0.0276583
0.031001
0.0343051
0.0375672
0.0407839
0.0439518
0.0470679
0.050129
0.0531325
0.0560753
0.058955
0.0617689
0.0645146
0.0671897
0.0697919
0.0723192
0.0747695
0.0771408
0.0794312
0.0816391
0.0837626
0.0858001
0.0877502
0.0896115
0.0913825
0.0930619
0.0946487
0.0961416
0.0975396
0.0988418
0.100047
0.101155
0.102165
0.103075
0.103886
0.104597
0.105207
0.105716
0.106123
0.106429
0.106633
0.106735
0.106735
0.106633
0.106429
0.106123
0.105716
0.105207
0.104597
0.103886
0.103075
0.102165
0.101155
0.100047
0.0988418
0.0975396
0.0961416
0.0946487
0.0930619
0.0913825
0.0896115
0.0877502
0.0858001
0.0837626
0.0816391
0.0794312
0.0771408
0.0747695
0.0723192
0.0697919
0.0671897
0.0645146
0.0617689
0.058955
0.0560753
0.0531325
0.050129
0.0470679
0.0439518
0.0407839
0.0375672
0.0343051
0.031001
0.0276583
0.0242807
0.020872
0.0174363
0.0139775
0.0105
0.00700811
0.00350653
0
0
0.00316884
0.0063332
0.00948876
0.0126314
0.015757
0.0188619
0.0219422
0.0249944
0.0280151
0.031001
0.0339488
0.0368555
0.0397182
0.042534
0.0453003
0.0480143
0.0506735
0.0532757
0.0558184
0.0582994
0.0607167
0.0630681
0.0653518
0.0675659
0.0697086
0.0717782
0.0737732
0.075692
0.0775331
0.0792952
0.080977
0.0825772
0.0840948
0.0855285
0.0868775
0.0881407
0.0893173
0.0904065
0.0914075
0.0923196
0.0931423
0.093875
0.0945171
0.0950683
0.0955282
0.0958964
0.0961729
0.0963572
0.0964495
0.0964495
0.0963572
0.0961729
0.0958964
0.0955282
0.0950683
0.0945171
0.093875
0.0931423
0.0923196
0.0914075
0.0904065
0.0893173
0.0881407
0.0868775
0.0855285
0.0840948
0.0825772
0.080977
0.0792952
0.0775331
0.075692
0.0737732
0.0717782
0.0697086
0.0675659
0.0653518
0.0630681
0.0607167
0.0582994
0.0558184
0.0532757
0.0506735
0.0480143
0.0453003
0.042534
0.0397182
0.0368555
0.0339488
0.031001
0.0280151
0.0249944
0.0219422
0.0188619
0.015757
0.0126314
0.00948876
0.0063332
0.00316884
0
0
0.0028272
0.00565039
0.00846573
0.0112695
0.0140581
0.0168282
0.0195764
0.0222995
0.0249944
0.0276583
0.0302882
0.0328814
0.0354353
0.0379474
0.0404153
0.0428365
0.0452089
0.0475304
0.0497987
0.0520121
0.0541686
0.0562663
0.0583036
0.0602788
0.0621903
0.0640366
0.0658163
0.067528
0.0691704
0.0707424
0.0722427
0.0736702
0.075024
0.076303
0.0775064
0.0786332
0.0796829
0.0806545
0.0815474
0.0823611
0.083095
0.0837486
0.0843214
0.0848131
0.0852234
0.0855519
0.0857985
0.0859629
0.0860452
0.0860452
0.0859629
0.0857985
0.0855519
0.0852234
0.0848131
0.0843214
0.0837486
0.083095
0.0823611
0.0815474
0.0806545
0.0796829
0.0786332
0.0775064
0.076303
0.075024
0.0736702
0.0722427
0.0707424
0.0691704
0.067528
0.0658163
0.0640366
0.0621903
0.0602788
0.0583036
0.0562663
0.0541686
0.0520121
0.0497987
0.0475304
0.0452089
0.0428365
0.0404153
0.0379474
0.0354353
0.0328814
0.0302882
0.0276583
0.0249944
0.0222995
0.0195764
0.0168282
0.0140581
0.0112695
0.00846573
0.00565039
0.0028272
0
0
0.00248198
0.00496044
0.007432
0.0098934
0.0123415
0.0147733
0.0171858
0.0195764
0.0219422
0.0242807
0.0265894
0.0288659
0.0311078
0.0333131
0.0354795
0.0376049
0.0396875
0.0417253
0.0437166
0.0456595
0.0475525
0.049394
0.0511823
0.0529162
0.0545941
0.0562148
0.057777
0.0592796
0.0607213
0.0621012
0.0634181
0.0646712
0.0658595
0.0669822
0.0680385
0.0690277
0.069949
0.0708019
0.0715857
0.0723
0.0729442
0.0735178
0.0740207
0.0744523
0.0748124
0.0751007
0.0753172
0.0754615
0.0755338
0.0755338
0.0754615
0.0753172
0.0751007
0.0748124
0.0744523
0.0740207
0.0735178
0.0729442
0.0723
0.0715857
0.0708019
0.069949
0.0690277
0.0680385
0.0669822
0.0658595
0.0646712
0.0634181
0.0621012
0.0607213
0.0592796
0.057777
0.0562148
0.0545941
0.0529162
0.0511823
0.049394
0.0475525
0.0456595
0.0437166
0.0417253
0.0396875
0.0376049
0.0354795
0.0333131
0.0311078
0.0288659
0.0265894
0.0242807
0.0219422
0.0195764
0.0171858
0.0147733
0.0123415
0.0098934
0.007432
0.00496044
0.00248198
0
0
0.00213357
0.00426412
0.00638873
0.0085046
0.010609
0.0126994
0.0147733
0.0168282
0.0188619
0.020872
0.0228566
0.0248134
0.0267406
0.0286362
0.0304984
0.0323254
0.0341155
0.0358672
0.0375788
0.0392489
0.040876
0.0424588
0.043996
0.0454863
0.0469286
0.0483217
0.0496645
0.050956
0.0521952
0.0533812
0.0545132
0.0555903
0.0566117
0.0575767
0.0584846
0.0593348
0.0601267
0.0608598
0.0615335
0.0621474
0.0627011
0.0631942
0.0636264
0.0639974
0.0643069
0.0645547
0.0647408
0.0648649
0.0649269
0.0649269
0.0648649
0.0647408
0.0645547
0.0643069
0.0639974
0.0636264
0.0631942
0.0627011
0.0621474
0.0615335
0.0608598
0.0601267
0.0593348
0.0584846
0.0575767
0.0566117
0.0555903
0.0545132
0.0533812
0.0521952
0.050956
0.0496645
0.0483217
0.0469286
0.0454863
0.043996
0.0424588
0.040876
0.0392489
0.0375788
0.0358672
0.0341155
0.0323254
0.0304984
0.0286362
0.0267406
0.0248134
0.0228566
0.020872
0.0188619
0.0168282
0.0147733
0.0126994
0.010609
0.0085046
0.00638873
0.00426412
0.00213357
0
0
0.00178239
0.00356224
0.00533713
0.00710472
0.00886274
0.010609
0.0123415
0.0140581
0.015757
0.0174363
0.0190941
0.0207288
0.0223387
0.0239222
0.0254778
0.027004
0.0284993
0.0299626
0.0313924
0.0327875
0.0341467
0.0354689
0.036753
0.0379979
0.0392027
0.0403663
0.041488
0.0425668
0.043602
0.0445927
0.0455383
0.046438
0.0472912
0.0480972
0.0488556
0.0495658
0.0502273
0.0508397
0.0514024
0.0519152
0.0523777
0.0527896
0.0531506
0.0534605
0.0537191
0.0539261
0.0540815
0.0541851
0.054237
0.054237
0.0541851
0.0540815
0.0539261
0.0537191
0.0534605
0.0531506
0.0527896
0.0523777
0.0519152
0.0514024
0.0508397
0.0502273
0.0495658
0.0488556
0.0480972
0.0472912
0.046438
0.0455383
0.0445927
0.043602
0.0425668
0.041488
0.0403663
0.0392027
0.0379979
0.036753
0.0354689
0.0341467
0.0327875
0.0313924
0.0299626
0.0284993
0.027004
0.0254778
0.0239222
0.0223387
0.0207288
0.0190941
0.0174363
0.015757
0.0140581
0.0123415
0.010609
0.00886274
0.00710472
0.00533713
0.00356224
0.00178239
0
0
0.00142883
0.00285564
0.00427846
0.00569542
0.00710472
0.0085046
0.0098934
0.0112695
0.0126314
0.0139775
0.0153064
0.0166168
0.0179073
0.0191767
0.0204236
0.0216471
0.0228458
0.0240187
0.0251648
0.0262831
0.0273727
0.0284325
0.0294618
0.0304597
0.0314255
0.0323582
0.0332574
0.0341221
0.0349519
0.035746
0.0365039
0.0372251
0.037909
0.0385551
0.0391631
0.0397323
0.0402626
0.0407534
0.0412045
0.0416155
0.0419863
0.0423164
0.0426058
0.0428542
0.0430614
0.0432274
0.0433519
0.043435
0.0434766
0.0434766
0.043435
0.0433519
0.0432274
0.0430614
0.0428542
0.0426058
0.0423164
0.0419863
0.0416155
0.0412045
0.0407534
0.0402626
0.0397323
0.0391631
0.0385551
0.037909
0.0372251
0.0365039
0.035746
0.0349519
0.0341221
0.0332574
0.0323582
0.0314255
0.0304597
0.0294618
0.0284325
0.0273727
0.0262831
0.0251648
0.0240187
0.0228458
0.0216471
0.0204236
0.0191767
0.0179073
0.0166168
0.0153064
0.0139775
0.0126314
0.0112695
0.0098934
0.0085046
0.00710472
0.00569542
0.00427846
0.00285564
0.00142883
0
0
0.00107336
0.00214519
0.00321403
0.00427846
0.00533713
0.00638873
0.007432
0.00846573
0.00948876
0.0105
0.0114983
0.0124826
0.013452
0.0144055
0.0153422
0.0162612
0.0171617
0.0180428
0.0189037
0.0197438
0.0205622
0.0213583
0.0221315
0.0228811
0.0236065
0.0243072
0.0249826
0.0256322
0.0262554
0.026852
0.0274213
0.027963
0.0284767
0.0289621
0.0294187
0.0298463
0.0302446
0.0306133
0.0309521
0.0312609
0.0315394
0.0317874
0.0320047
0.0321913
0.032347
0.0324716
0.0325652
0.0326276
0.0326588
0.0326588
0.0326276
0.0325652
0.0324716
0.032347
0.0321913
0.0320047
0.0317874
0.0315394
0.0312609
0.0309521
0.0306133
0.0302446
0.0298463
0.0294187
0.0289621
0.0284767
0.027963
0.0274213
0.026852
0.0262554
0.0256322
0.0249826
0.0243072
0.0236065
0.0228811
0.0221315
0.0213583
0.0205622
0.0197438
0.0189037
0.0180428
0.0171617
0.0162612
0.0153422
0.0144055
0.013452
0.0124826
0.0114983
0.0105
0.00948876
0.00846573
0.007432
0.00638873
0.00533713
0.00427846
0.00321403
0.00214519
0.00107336
0
0
0.000716409
0.0014318
0.00214519
0.00285564
0.00356224
0.00426412
0.00496044
0.00565039
0.0063332
0.00700811
0.0076744
0.00833139
0.00897841
0.00961481
0.01024
0.0108534
0.0114543
0.0120424
0.012617
0.0131777
0.0137239
0.0142553
0.0147713
0.0152716
0.0157557
0.0162234
0.0166742
0.0171077
0.0175237
0.0179218
0.0183018
0.0186633
0.0190062
0.0193301
0.0196349
0.0199203
0.0201861
0.0204321
0.0206583
0.0208644
0.0210502
0.0212157
0.0213608
0.0214853
0.0215892
0.0216724
0.0217349
0.0217765
0.0217973
0.0217973
0.0217765
0.0217349
0.0216724
0.0215892
0.0214853
0.0213608
0.0212157
0.0210502
0.0208644
0.0206583
0.0204321
0.0201861
0.0199203
0.0196349
0.0193301
0.0190062
0.0186633
0.0183018
0.0179218
0.0175237
0.0171077
0.0166742
0.0162234
0.0157557
0.0152716
0.0147713
0.0142553
0.0137239
0.0131777
0.012617
0.0120424
0.0114543
0.0108534
0.01024
0.00961481
0.00897841
0.00833139
0.0076744
0.00700811
0.0063332
0.00565039
0.00496044
0.00426412
0.00356224
0.00285564
0.00214519
0.0014318
0.000716409
0
0
0.000358459
0.000716409
0.00107336
0.00142883
0.00178239
0.00213357
0.00248198
0.0028272
0.00316884
0.00350653
0.00383991
0.00416863
0.00449237
0.00481079
0.0051236
0.00543049
0.00573119
0.00602542
0.00631292
0.00659345
0.00686675
0.00713261
0.00739081
0.00764113
0.00788337
0.00811735
0.00834288
0.0085598
0.00876793
0.00896713
0.00915725
0.00933814
0.00950969
0.00967176
0.00982425
0.00996704
0.0101
0.0102232
0.0103363
0.0104394
0.0105324
0.0106152
0.0106878
0.0107501
0.0108021
0.0108437
0.0108749
0.0108958
0.0109062
0.0109062
0.0108958
0.0108749
0.0108437
0.0108021
0.0107501
0.0106878
0.0106152
0.0105324
0.0104394
0.0103363
0.0102232
0.0101
0.00996704
0.00982425
0.00967176
0.00950969
0.00933814
0.00915725
0.00896713
0.00876793
0.0085598
0.00834288
0.00811735
0.00788337
0.00764113
0.00739081
0.00713261
0.00686675
0.00659345
0.00631292
0.00602542
0.00573119
0.00543049
0.0051236
0.00481079
0.00449237
0.00416863
0.00383991
0.00350653
0.00316884
0.0028272
0.00248198
0.00213357
0.00178239
0.00142883
0.00107336
0.000716409
0.000358459
0
0
0
0
0
0
0
0
0
0
0
0
0
0
0
0
0
0
0
0
0
0
0
0
0
0
0
0
0
0
0
0
0
0
0
0
0
0
0
0
0
0
0
0
0
0
0
0
0
0
0
0
0
0
0
0
0
0
0
0
0
0
0
0
0
0
0
0
0
0
0
0
0
0
0
0
0
0
0
0
0
0
0
0
0
0
0
0
0
0
0
0
0
0
0
0
0
0
0
0
0
